<svg width="53" height="53" viewBox="0 0 53 53" fill="none" xmlns="http://www.w3.org/2000/svg">
<path class="fill" fill-rule="evenodd" clip-rule="evenodd" d="M15.8321 11.9246V15.0255L12.1329 15.3269C10.862 15.4292 9.66209 15.9546 8.72504 16.8192C7.788 17.6838 7.16791 18.8377 6.96391 20.0962C6.87365 20.6596 6.79067 21.2238 6.71497 21.7886C6.69797 21.9253 6.72449 22.0638 6.79074 22.1846C6.85699 22.3053 6.95961 22.4021 7.08402 22.4612L7.25217 22.5398C19.1077 28.1521 33.3043 28.1521 45.1577 22.5398L45.3258 22.4612C45.4499 22.4018 45.552 22.3049 45.6179 22.1841C45.6837 22.0634 45.7099 21.925 45.6927 21.7886C45.6186 21.2233 45.5364 20.6591 45.446 20.0962C45.242 18.8377 44.6219 17.6838 43.6848 16.8192C42.7478 15.9546 41.5479 15.4292 40.277 15.3269L36.5777 15.0277V11.9268C36.578 11.0115 36.2497 10.1265 35.6525 9.43278C35.0554 8.73907 34.2291 8.28272 33.324 8.14673L30.6598 7.74711C27.7063 7.30565 24.7036 7.30565 21.7501 7.74711L19.0859 8.14673C18.1811 8.28267 17.3551 8.7387 16.7581 9.43196C16.161 10.1252 15.8324 11.0097 15.8321 11.9246ZM30.1728 10.9856C27.5422 10.5927 24.8677 10.5927 22.2371 10.9856L19.5729 11.3852C19.4436 11.4046 19.3256 11.4697 19.2402 11.5686C19.1549 11.6676 19.1079 11.7939 19.1077 11.9246V14.7963C23.8354 14.5263 28.5745 14.5263 33.3021 14.7963V11.9246C33.302 11.7939 33.255 11.6676 33.1696 11.5686C33.0843 11.4697 32.9662 11.4046 32.837 11.3852L30.1728 10.9856Z" fill="black"/>
<path class="fill" d="M46.1161 26.3573C46.1118 26.2867 46.0904 26.2182 46.0537 26.1577C46.0171 26.0972 45.9663 26.0465 45.9057 26.01C45.8451 25.9735 45.7766 25.9522 45.706 25.948C45.6354 25.9439 45.5648 25.9569 45.5003 25.986C33.3347 31.3733 19.0748 31.3733 6.90909 25.986C6.84463 25.9569 6.77407 25.9439 6.70345 25.948C6.63284 25.9522 6.5643 25.9735 6.50372 26.01C6.44314 26.0465 6.39234 26.0972 6.35568 26.1577C6.31902 26.2182 6.29761 26.2867 6.29327 26.3573C6.0721 30.538 6.29684 34.7305 6.96369 38.8636C7.16723 40.1226 7.78713 41.2769 8.72422 42.1419C9.6613 43.007 10.8614 43.5327 12.1326 43.6351L16.2206 43.9627C22.8658 44.4999 29.5415 44.4999 36.1888 43.9627L40.2768 43.6351C41.548 43.5327 42.7481 43.007 43.6852 42.1419C44.6223 41.2769 45.2422 40.1226 45.4457 38.8636C46.114 34.7254 46.3411 30.5326 46.1161 26.3595" fill="black"/>
</svg>
