<svg width="30" height="30" viewBox="0 0 30 30" fill="none" xmlns="http://www.w3.org/2000/svg">
<path d="M14.9781 15.4766C14.0498 15.4766 13.1596 15.8453 12.5032 16.5017C11.8468 17.1581 11.4781 18.0483 11.4781 18.9766C11.4781 19.9048 11.8468 20.7951 12.5032 21.4514C13.1596 22.1078 14.0498 22.4766 14.9781 22.4766C15.9064 22.4766 16.7966 22.1078 17.453 21.4514C18.1093 20.7951 18.4781 19.9048 18.4781 18.9766C18.4781 18.0483 18.1093 17.1581 17.453 16.5017C16.7966 15.8453 15.9064 15.4766 14.9781 15.4766ZM13.4781 18.9766C13.4781 18.5787 13.6361 18.1972 13.9174 17.9159C14.1987 17.6346 14.5803 17.4766 14.9781 17.4766C15.3759 17.4766 15.7575 17.6346 16.0388 17.9159C16.3201 18.1972 16.4781 18.5787 16.4781 18.9766C16.4781 19.3744 16.3201 19.7559 16.0388 20.0372C15.7575 20.3185 15.3759 20.4766 14.9781 20.4766C14.5803 20.4766 14.1987 20.3185 13.9174 20.0372C13.6361 19.7559 13.4781 19.3744 13.4781 18.9766Z" fill="black"/>
<path d="M20.5041 8.09262L17.3251 3.63562L5.6361 12.9736L4.9881 12.9666L4.9881 12.9766L4.4781 12.9766L4.4781 24.9766L25.4781 24.9766L25.4781 12.9766L24.5161 12.9766L22.6021 7.37762L20.5041 8.09262ZM22.4031 12.9766L12.3751 12.9766L19.8441 10.4306L21.3661 9.94362L22.4031 12.9766ZM18.5281 8.76662L10.8181 11.3946L16.9241 6.51662L18.5281 8.76662ZM6.4781 21.1456L6.4781 16.8056C6.90027 16.6566 7.28375 16.415 7.6004 16.0985C7.91706 15.7821 8.15887 15.3987 8.3081 14.9766L21.6481 14.9766C21.7972 15.3989 22.039 15.7824 22.3556 16.0991C22.6723 16.4158 23.0558 16.6575 23.4781 16.8066L23.4781 21.1466C23.0558 21.2957 22.6723 21.5375 22.3556 21.8541C22.039 22.1708 21.7972 22.5543 21.6481 22.9766L8.3101 22.9766C8.16028 22.5543 7.91806 22.1708 7.60112 21.854C7.28417 21.5372 6.9005 21.2952 6.4781 21.1456Z" fill="black"/>
</svg>
