<svg width="29" height="28" viewBox="0 0 29 28" fill="none" xmlns="http://www.w3.org/2000/svg">
<path class="fill" d="M16.7342 10.9158C19.564 10.9158 22.4 10.9158 25.2297 10.9158C25.989 10.9158 26.7293 10.9849 27.4509 11.2484C28.5426 11.6437 28.9693 12.6727 28.8313 13.7142C28.6932 14.7621 28.0344 15.4836 27.2564 16.1173C26.265 16.9267 25.1231 17.4663 23.9247 17.893C23.6737 17.9808 23.5294 18.1251 23.4164 18.3573C22.7263 19.7816 21.8227 21.0239 20.5114 21.9463C20.1098 22.2223 19.7083 22.3792 19.2063 22.3666C17.6816 22.3415 16.157 22.3604 14.626 22.3541C14.2119 22.3541 14.1993 22.3478 14.2244 21.9274C14.3437 19.951 13.8041 18.1753 12.568 16.6381C11.3006 15.057 9.6504 14.097 7.63004 13.8146C7.05279 13.7331 7.04652 13.7393 6.99632 13.1307C6.9524 12.6727 6.89593 12.2146 6.87711 11.7566C6.84574 11.1229 7.09671 10.8845 7.7367 10.8907C10.0582 10.897 12.3798 10.897 14.695 10.9033C15.3727 10.9033 16.0566 10.9033 16.7342 10.9033C16.7342 10.9096 16.7342 10.9158 16.7342 10.9158ZM24.207 16.4436C25.2109 16.0483 26.0768 15.5526 26.8109 14.8499C27.0932 14.5801 27.3066 14.2601 27.4195 13.8774C27.5952 13.2436 27.3505 12.7605 26.7419 12.5284C26.265 12.3464 25.7756 12.3903 25.2862 12.3527C25.0666 12.3339 24.9976 12.4092 24.9788 12.6225C24.8847 13.526 24.7341 14.4232 24.5019 15.3017C24.4015 15.6656 24.3074 16.0295 24.207 16.4436Z" fill="black"/>
<path class="fill" d="M13.1139 21.4569C13.1139 25.0647 10.1586 28.0011 6.52574 28.0011C2.93678 28.0011 -0.0372929 25.0145 0.000353523 21.3941C0.038 17.7738 2.94305 14.8625 6.60731 14.875C10.2025 14.8876 13.1139 17.8303 13.1139 21.4569ZM11.9719 21.4255C11.9719 18.4515 9.53745 16.0107 6.55711 16.0233C3.64578 16.0358 1.14857 18.326 1.15484 21.4381C1.16112 24.431 3.46383 26.8341 6.60103 26.8403C9.58137 26.8466 11.9782 24.3745 11.9719 21.4255Z" fill="black"/>
<path class="fill" d="M14.9776 9.05695C14.9714 8.86872 15.0529 8.71186 15.1408 8.56127C15.7368 7.56992 15.718 6.81699 14.9714 5.91347C14.2686 5.05388 13.8671 4.10017 13.911 2.97705C13.9298 2.38726 14.0427 1.81629 14.2874 1.27041C14.4694 0.862576 14.8584 0.705716 15.2412 0.862576C15.6176 1.01316 15.7557 1.3959 15.5988 1.83511C15.3917 2.40608 15.147 2.9645 15.2851 3.59822C15.3855 4.0688 15.5925 4.48918 15.9376 4.82173C16.9854 5.83818 17.1611 7.03032 16.6843 8.36049C16.5588 8.71186 16.4145 9.06322 16.2137 9.38322C16.0317 9.67812 15.7494 9.77851 15.4294 9.68439C15.1345 9.59655 14.9776 9.38949 14.9776 9.05695Z" fill="black"/>
<path class="fill" d="M19.3316 0.751141C19.3441 0.914275 19.2751 1.08368 19.2061 1.24682C18.7292 2.35739 18.8986 3.3362 19.7645 4.19579C20.6931 5.11813 20.7621 6.23497 20.4108 7.42084C20.2978 7.7973 20.1284 8.16122 19.9339 8.51258C19.7269 8.88905 19.3253 9.02708 18.9802 8.83258C18.6414 8.64435 18.5473 8.23023 18.7731 7.85377C19.1057 7.29535 19.3629 6.72438 19.1684 6.04674C19.0743 5.7142 18.93 5.42557 18.7041 5.16832C18.0202 4.3903 17.6061 3.49933 17.5873 2.44523C17.5747 1.73622 17.7002 1.05231 17.9888 0.406048C18.1394 0.0672302 18.4782 -0.0645324 18.8296 0.0295837C19.1684 0.1237 19.3316 0.349578 19.3316 0.751141Z" fill="black"/>
<path class="fill" d="M11.2754 0.00983817C11.7648 0.00356376 12.0974 0.405126 11.9782 0.888255C11.9217 1.13296 11.8088 1.35884 11.7335 1.59726C11.4448 2.4945 11.5641 3.329 12.2542 4.00036C13.4778 5.19877 13.4652 6.54777 12.8378 8.00343C12.7499 8.20421 12.6495 8.39872 12.5303 8.58695C12.317 8.92577 11.9343 9.01361 11.608 8.81911C11.2943 8.63087 11.1939 8.27323 11.3884 7.91559C11.5327 7.65207 11.677 7.38227 11.7774 7.09992C12.0472 6.33444 11.8025 5.67563 11.3068 5.09838C10.1084 3.71801 10.0143 2.17451 10.5978 0.518065C10.7233 0.191796 10.968 0.0161126 11.2754 0.00983817Z" fill="black"/>
<path class="fill" d="M6.96503 19.7963C6.96503 19.9971 6.97131 20.1916 6.96503 20.3923C6.95249 20.6119 7.00896 20.7876 7.16582 20.957C7.41679 21.2331 7.40424 21.6158 7.17209 21.9045C6.95876 22.1743 6.5572 22.2872 6.24348 22.1115C6.07407 22.0174 5.95485 22.03 5.78545 22.1053C5.16428 22.4002 4.53056 22.6825 3.90312 22.9648C3.71489 23.0464 3.52039 23.0903 3.41999 22.8645C3.3196 22.6386 3.47646 22.5256 3.6647 22.4378C4.25449 22.168 4.83801 21.8919 5.4278 21.6284C5.64113 21.5343 5.81054 21.4151 5.84819 21.1704C5.84819 21.1578 5.85446 21.1453 5.86074 21.139C6.31877 20.6747 6.12426 20.0912 6.14936 19.5516C6.16191 19.332 6.15564 19.1124 6.18073 18.899C6.20583 18.6732 6.35642 18.5351 6.58857 18.5477C6.82072 18.5602 6.94621 18.7171 6.95876 18.943C6.96503 19.2316 6.95876 19.5139 6.96503 19.7963C6.95876 19.7963 6.95876 19.7963 6.96503 19.7963Z" fill="black"/>
</svg>
