<svg width="110" height="138" viewBox="0 0 110 138" fill="none" xmlns="http://www.w3.org/2000/svg">
    <path class="fill" d="M109.743 131C109.743 134.866 106.609 138 102.743 138H7C3.13401 138 0 134.866 0 131L0 7C0 3.134 3.13401 0 7 0H81.2407C81.5238 0 81.7954 0.112442 81.9956 0.312622L82.4852 0.802155C82.5162 0.833145 82.5635 0.840927 82.6029 0.821503C82.6422 0.802078 82.6895 0.80986 82.7205 0.840866L108.931 27.0507C108.946 27.0656 108.954 27.0859 108.954 27.107C108.954 27.1281 108.962 27.1484 108.977 27.1633L109.348 27.5345C109.601 27.7871 109.743 28.1297 109.743 28.4869L109.743 131ZM5.25714 125.743C5.25714 129.609 8.39115 132.743 12.2571 132.743H97.486C101.352 132.743 104.486 129.609 104.486 125.743L104.486 38.543C104.486 34.677 101.352 31.543 97.486 31.543H82.6876C81.4973 31.543 80.3558 31.0701 79.5142 30.2284C78.6727 29.3868 78.2 28.2454 78.2 27.0554V12.257C78.2 8.39102 75.066 5.257 71.2 5.257H12.2571C8.39114 5.257 5.25714 8.39101 5.25714 12.257L5.25714 125.743ZM92.0191 17.6969C88.849 14.5509 83.4571 16.7964 83.4571 21.2626C83.4571 24.0369 85.7062 26.286 88.4806 26.286C92.9652 26.286 95.2023 20.8559 92.0191 17.6969Z" fill="#000"/>
    <path class="fill" d="M78.8582 47.3141H76.821L58.5524 71.497L77.0839 95.9427H78.8582V105.8H30.8867V95.9427H33.5153L52.0467 71.497L33.7124 47.3141H30.8867V37.4568H78.8582V47.3141ZM40.1524 95.9427H70.381L55.2667 75.9656L40.1524 95.9427ZM55.2667 67.2913L69.0667 49.0884L62.4953 54.2141C60.3595 55.8788 57.8185 56.7328 55.2667 56.7834C52.4795 56.8386 49.6796 55.9352 47.381 54.0827L42.1896 49.877L55.2667 67.2913Z" fill="#000"/>
</svg>
