<svg width="46" height="56" viewBox="0 0 46 56" fill="none" xmlns="http://www.w3.org/2000/svg">
<path d="M27.9987 1.33331H14.132C9.65161 1.33331 7.4114 1.33331 5.70011 2.20526C4.19481 2.97225 2.97097 4.19609 2.20398 5.70139C1.33203 7.41268 1.33203 9.65289 1.33203 14.1333V41.8666C1.33203 46.3471 1.33203 48.5873 2.20398 50.2986C2.97097 51.8039 4.19481 53.0277 5.70011 53.7947C7.4114 54.6666 9.65161 54.6666 14.132 54.6666H31.1987C35.6791 54.6666 37.9193 54.6666 39.6306 53.7947C41.1359 53.0277 42.3598 51.8039 43.1268 50.2986C43.9987 48.5873 43.9987 46.3471 43.9987 41.8666V17.3333M27.9987 1.33331L43.9987 17.3333M27.9987 1.33331V17.3333H43.9987M22.6654 44C22.6654 44 30.6654 40.1869 30.6654 34.4673V27.7943L24.8318 25.7099C23.4302 25.2078 21.8974 25.2078 20.4958 25.7099L14.6654 27.7943V34.4673C14.6654 40.1869 22.6654 44 22.6654 44Z" stroke="black" stroke-width="2.66667" stroke-linecap="round" stroke-linejoin="round"/>
</svg>
