<svg width="153" height="153" viewBox="0 0 153 153" fill="none" xmlns="http://www.w3.org/2000/svg">

<path d="M74.1444 127.699C68.6002 123.518 64.601 117.156 63.2377 109.884H45.4233V32.9923C54.9667 37.8095 61.8742 48.2616 62.6923 59.1683L65.3282 80.8908L63.9647 80.709C61.0564 80.709 58.6022 83.3449 58.6022 86.0715C58.6022 88.5254 60.5109 90.7068 62.9649 91.2522L66.2369 91.9794C71.5993 81.7997 74.6896 71.8928 74.6896 62.1677C74.6896 53.3515 73.5081 44.5353 73.3263 35.5373C73.3263 31.5381 74.8713 27.9027 77.3255 24.9941C79.7794 27.9027 81.3245 31.5381 81.3245 35.5373C81.3245 44.5353 79.9612 53.3515 79.9612 62.1677C79.9612 71.8928 83.0515 81.8906 88.4139 91.9794L91.6859 91.2522C94.1399 90.7068 96.0486 88.6163 96.0486 86.0715C96.0486 83.4358 93.5946 80.709 90.6861 80.709L89.3228 80.8908L91.9585 59.2592C93.3218 48.3525 99.5932 37.8095 109.137 33.0832V109.975H91.3222C89.9589 117.246 86.1417 123.79 80.4156 127.789C79.0523 128.789 77.9616 129.88 77.1436 131.425C76.5983 129.88 75.4168 128.698 74.1444 127.699ZM53.7852 83.3449C54.5124 80.4364 56.6937 77.9825 59.3294 76.4372L57.2389 58.6231C56.512 53.0789 54.1487 48.0799 50.6949 44.0809V83.3449H53.7852ZM62.7831 104.613C62.7831 101.977 63.1468 99.4321 63.7829 96.9782L61.329 96.4329C57.6935 95.2514 54.785 92.4338 53.8761 88.7983H50.7858V104.704H62.7831V104.613ZM74.6896 104.613C74.6896 101.341 72.2357 98.5234 68.9637 98.0688C68.4182 100.159 67.9639 102.25 67.9639 104.613H74.6896ZM74.6896 109.975H68.7819C69.7817 114.156 71.8722 117.973 74.6896 121.245V109.975ZM83.1423 93.3427C80.8701 89.1617 78.7797 84.7082 77.4164 80.1638C76.0529 84.7991 73.9626 89.1617 71.6902 93.3427C73.9626 93.8879 75.8711 95.4331 77.4164 97.1599C78.8705 95.4331 80.7793 93.8879 83.1423 93.3427ZM86.7778 104.613C86.7778 102.341 86.4143 100.25 85.778 98.0688C82.506 98.4323 80.0521 101.341 80.0521 104.613H86.7778ZM85.96 109.975H80.0521V121.245C82.8697 117.973 85.051 114.156 85.96 109.975ZM103.956 104.613V88.7074H100.866C99.8658 92.3429 97.0484 95.2514 93.4127 96.3421L90.9587 96.8873C91.5042 99.3412 91.9585 101.886 91.9585 104.522H103.956V104.613ZM103.956 83.3449V44.0809C100.502 48.0799 98.0482 53.0789 97.4119 58.6231L95.3214 76.4372C97.9573 77.9825 100.139 80.4364 100.866 83.3449H103.956Z" fill="black"/>
<path d="M76.5997 2.36312C109.229 2.36312 127.134 2.36312 138.495 13.7242C149.856 25.0853 149.856 42.9904 149.856 75.6195C149.856 108.249 149.856 126.154 138.495 137.515C127.134 148.876 109.229 148.876 76.5997 148.876C43.9706 148.876 26.0656 148.876 14.7045 137.515C3.34334 126.154 3.34334 108.249 3.34334 75.6195C3.34334 42.9904 3.34334 25.0853 14.7045 13.7242C25.9747 2.36312 43.9706 2.36312 76.5997 2.36312ZM76.5997 0C43.4254 0 25.0658 0 12.9776 11.9973C0.980221 23.9947 0.980225 42.4451 0.980225 75.6195C0.980225 108.794 0.980221 127.154 12.9776 139.242C24.9749 151.239 43.4254 151.239 76.5997 151.239C109.774 151.239 128.134 151.239 140.222 139.242C152.219 127.245 152.219 108.794 152.219 75.6195C152.219 42.4451 152.219 24.0855 140.222 11.9973C128.134 0 109.683 0 76.5997 0Z" fill="black"/>


</svg>
