<svg width="51" height="56" viewBox="0 0 51 56" fill="none" xmlns="http://www.w3.org/2000/svg">
<path d="M23.4279 2.26726C24.1842 1.84711 24.5623 1.63703 24.9628 1.55467C25.3172 1.48178 25.6828 1.48178 26.0372 1.55467C26.4377 1.63703 26.8158 1.84711 27.5721 2.26726L47.3054 13.2302C48.1041 13.674 48.5035 13.8958 48.7943 14.2114C49.0516 14.4906 49.2463 14.8215 49.3654 15.1819C49.5 15.5894 49.5 16.0463 49.5 16.96V38.6056C49.5 39.5193 49.5 39.9762 49.3654 40.3836C49.2463 40.7441 49.0516 41.075 48.7943 41.3542C48.5035 41.6697 48.1041 41.8916 47.3054 42.3353L27.5721 53.2983C26.8158 53.7184 26.4377 53.9285 26.0372 54.0109C25.6828 54.0838 25.3172 54.0838 24.9628 54.0109C24.5623 53.9285 24.1842 53.7184 23.4279 53.2983L3.69459 42.3353C2.89586 41.8916 2.49649 41.6697 2.20569 41.3542C1.94842 41.075 1.75373 40.7441 1.63463 40.3836C1.5 39.9762 1.5 39.5193 1.5 38.6056V16.96C1.5 16.0462 1.5 15.5894 1.63463 15.1819C1.75373 14.8215 1.94842 14.4906 2.20569 14.2114C2.49649 13.8958 2.89586 13.674 3.69459 13.2302L23.4279 2.26726Z" stroke="black" stroke-width="3" stroke-linecap="round" stroke-linejoin="round"/>
<path fill-rule="evenodd" clip-rule="evenodd" d="M25.4909 19.9639C22.8251 16.8473 18.3797 16.009 15.0396 18.8628C11.6995 21.7166 11.2293 26.4881 13.8523 29.8633C15.5323 32.0252 19.8349 36.0341 22.7113 38.6371C23.6672 39.5021 24.1451 39.9346 24.7176 40.108C25.2097 40.2572 25.7721 40.2572 26.2642 40.108C26.8366 39.9346 27.3146 39.5021 28.2704 38.6371C31.1468 36.0341 35.4494 32.0252 37.1295 29.8633C39.7524 26.4881 39.3396 21.6866 35.9421 18.8628C32.5447 16.039 28.1567 16.8473 25.4909 19.9639Z" stroke="black" stroke-width="3" stroke-linecap="round" stroke-linejoin="round"/>
</svg>
