<svg width="138" height="118" viewBox="0 0 138 118" fill="none" xmlns="http://www.w3.org/2000/svg">
<path d="M63.1572 22.5643H92.8319C93.5568 22.5643 94.1415 21.9803 94.1415 21.2563C94.1415 20.5323 93.5568 19.9482 92.8319 19.9482H63.1572C62.4275 19.9482 61.8477 20.5323 61.8477 21.2563C61.8477 21.9803 62.4324 22.5643 63.1572 22.5643Z" fill="black"/>
<path d="M63.1572 17.183H92.8319C93.5568 17.183 94.1415 16.599 94.1415 15.8749C94.1415 15.1509 93.5568 14.5669 92.8319 14.5669H63.1572C62.4275 14.5669 61.8477 15.1509 61.8477 15.8749C61.8477 16.599 62.4324 17.183 63.1572 17.183Z" fill="black"/>
<path d="M46.2479 25.4171H56.5164C57.4925 25.4171 58.2947 24.6207 58.2995 23.6409V13.3792C58.2995 12.3946 57.4974 11.5981 56.5164 11.5981H46.2479C45.2622 11.5981 44.4648 12.3994 44.4648 13.3792V23.6361C44.4648 24.6159 45.267 25.4171 46.2479 25.4171ZM46.2431 13.3744C46.2431 13.3744 46.2431 13.3696 46.2479 13.3696H56.5164C56.5213 13.3696 56.5213 13.3744 56.5213 13.3744C56.5213 13.3744 56.5213 13.3744 56.5213 13.3792V23.6312C56.5213 23.6409 56.5164 23.6457 56.5116 23.6457H46.2479C46.2431 23.6457 46.2431 23.6409 46.2383 23.6409L46.2431 13.3744Z" fill="black"/>
<path d="M63.0634 39.0541H92.7382C93.463 39.0541 94.0477 38.47 94.0477 37.746C94.0477 37.022 93.463 36.438 92.7382 36.438H63.0634C62.3338 36.438 61.7539 37.022 61.7539 37.746C61.7539 38.47 62.3386 39.0541 63.0634 39.0541Z" fill="black"/>
<path d="M63.0634 33.6762H92.7382C93.463 33.6762 94.0477 33.0921 94.0477 32.3681C94.0477 31.6441 93.463 31.0601 92.7382 31.0601H63.0634C62.3338 31.0601 61.7539 31.6441 61.7539 32.3681C61.7539 33.0873 62.3386 33.6762 63.0634 33.6762Z" fill="black"/>
<path d="M46.1542 41.9069H56.4227C57.3988 41.9069 58.201 41.1105 58.2058 40.1306V29.869C58.2058 28.8843 57.4036 28.0879 56.4227 28.0879H46.1542C45.1684 28.0879 44.3711 28.8891 44.3711 29.869V40.1258C44.3711 41.1105 45.1732 41.9069 46.1542 41.9069ZM46.1494 29.869C46.1494 29.869 46.1494 29.8641 46.1542 29.8641H56.4227C56.4275 29.8641 56.4275 29.869 56.4275 29.869C56.4275 29.869 56.4275 29.869 56.4275 29.8738V40.1258C56.4275 40.1355 56.4227 40.1355 56.4179 40.1355H46.1542C46.1494 40.1355 46.1494 40.1306 46.1445 40.1306L46.1494 29.869Z" fill="black"/>
<path d="M62.9736 55.5468H92.6484C93.3732 55.5468 93.9579 54.9627 93.9579 54.2387C93.9579 53.5147 93.3732 52.9307 92.6484 52.9307H62.9736C62.2439 52.9307 61.6641 53.5147 61.6641 54.2387C61.6641 54.9627 62.2488 55.5468 62.9736 55.5468Z" fill="black"/>
<path d="M62.9736 50.1659H92.6484C93.3732 50.1659 93.9579 49.5819 93.9579 48.8579C93.9579 48.1338 93.3732 47.5498 92.6484 47.5498H62.9736C62.2439 47.5498 61.6641 48.1338 61.6641 48.8579C61.6641 49.5819 62.2488 50.1659 62.9736 50.1659Z" fill="black"/>
<path d="M46.0683 58.3996H56.3368C57.3129 58.3996 58.115 57.6031 58.1199 56.6233V46.3616C58.1199 45.377 57.3177 44.5806 56.3368 44.5806H46.0683C45.0825 44.5806 44.2852 45.3818 44.2852 46.3616V56.6185C44.2803 57.5983 45.0825 58.3996 46.0683 58.3996ZM46.0586 46.3568C46.0586 46.3568 46.0586 46.352 46.0634 46.352H56.3319C56.3368 46.352 56.3368 46.3568 56.3368 46.3568C56.3368 46.3568 56.3368 46.3568 56.3368 46.3616V56.6137C56.3368 56.6233 56.3319 56.6281 56.3271 56.6281H46.0683C46.0634 56.6281 46.0634 56.6233 46.0586 56.6233V46.3568Z" fill="black"/>
<path d="M41.4859 71.6049H98.0037C100.806 71.6049 103.087 69.5004 103.087 66.9084V4.69643C103.087 2.10929 100.806 0 98.0037 0H41.4859C38.6832 0 36.4023 2.10446 36.4023 4.69643V66.9133C36.4072 69.5004 38.6832 71.6049 41.4859 71.6049ZM41.0799 4.69643C41.0799 4.64333 41.2201 4.48405 41.4859 4.48405H98.0037C98.2694 4.48405 98.4096 4.63851 98.4096 4.69643V66.9133C98.4096 66.9664 98.2694 67.1256 98.0037 67.1256H41.4859C41.2201 67.1256 41.0799 66.9712 41.0799 66.9133V4.69643Z" fill="black"/>
<path d="M49.2061 21.5886C49.4284 21.8107 49.728 21.941 50.042 21.941H50.0469C50.361 21.941 50.6606 21.8155 50.878 21.5983L55.0627 17.4183C55.5218 16.9598 55.5218 16.2116 55.0627 15.7531C54.6037 15.2945 53.8595 15.2945 53.4005 15.7531L50.0565 19.0932L49.3462 18.374C48.8871 17.9106 48.143 17.9058 47.6791 18.3644C47.2152 18.8229 47.2104 19.5662 47.6694 20.0296L49.2061 21.5886Z" fill="black"/>
<path d="M49.4092 37.8616C49.6315 38.0836 49.9311 38.2139 50.2452 38.2139H50.25C50.5641 38.2139 50.8637 38.0884 51.0812 37.8712L55.2659 33.6913C55.7249 33.2327 55.7249 32.4846 55.2659 32.026C54.8068 31.5675 54.0626 31.5675 53.6036 32.026L50.2597 35.3661L49.5493 34.647C49.0903 34.1836 48.3461 34.1788 47.8822 34.6373C47.4183 35.0958 47.4135 35.8392 47.8725 36.3025L49.4092 37.8616Z" fill="black"/>
<path d="M49.2725 54.3049C49.4948 54.527 49.7944 54.6573 50.1085 54.6573H50.1133C50.4274 54.6573 50.727 54.5318 50.9444 54.3146L55.1292 50.1346C55.5882 49.6761 55.5882 48.9279 55.1292 48.4694C54.6701 48.0109 53.9259 48.0109 53.4669 48.4694L50.123 51.8095L49.4126 51.0903C48.9536 50.627 48.2094 50.6221 47.7455 51.0807C47.2816 51.5344 47.2768 52.2825 47.7358 52.7459L49.2725 54.3049Z" fill="black"/>
<path d="M135.944 111.942C130.759 106.802 125.598 101.637 120.451 96.4532C119.533 95.5265 118.538 95.0342 117.194 95.0342C84.7943 95.0535 52.3942 95.0535 19.994 95.0342C18.67 95.0342 17.6552 95.4589 16.7226 96.4001C11.6149 101.56 6.47826 106.7 1.31743 111.807C0.22535 112.888 -0.364183 114.037 0.235014 115.524C0.829379 116.991 2.06643 117.305 3.54026 117.305C25.2177 117.286 46.8999 117.29 68.5773 117.29C68.5773 117.295 68.5773 117.295 68.5773 117.3C90.2982 117.3 112.014 117.3 133.735 117.3C135.402 117.3 136.432 116.716 136.9 115.475C137.422 114.081 136.978 112.966 135.944 111.942ZM48.2529 111.479C49.1131 109.814 50.0167 108.366 50.6207 106.802C51.2344 105.219 52.2637 104.919 53.8197 104.929C63.7403 104.997 73.656 105.011 83.5766 104.948C84.9924 104.939 85.8284 105.267 86.3986 106.618C87.0655 108.211 87.9691 109.708 88.8872 111.474C75.27 111.479 61.8943 111.479 48.2529 111.479Z" fill="black"/>
<path d="M21.512 84.9231C21.7633 87.0131 23.1308 88.5914 25.0637 88.9727C25.6774 89.0934 26.3201 89.1127 26.9483 89.1127C47.925 89.1175 68.9018 89.1175 89.8833 89.1175C96.7644 89.1175 103.646 89.1224 110.527 89.1175C113.929 89.1175 115.663 87.2544 115.683 83.6102C115.683 83.4895 115.683 83.3737 115.683 83.253C115.683 65.9491 115.687 48.65 115.673 31.3461C115.673 30.5208 115.649 29.6616 115.446 28.87C114.876 26.6594 113.209 25.5396 110.623 25.5396C108.976 25.5396 107.333 25.5396 105.685 25.5396V31.071H110.464V83.4944H26.6729V31.0758H32.3411V25.5444C30.5048 25.5444 28.6637 25.5444 26.8275 25.5492C26.0882 25.5492 25.3198 25.554 24.6192 25.7616C22.5413 26.3649 21.4492 28.1798 21.4492 30.8828C21.4492 48.4618 21.4492 66.0408 21.4541 83.6199C21.4492 84.0543 21.4589 84.4935 21.512 84.9231Z" fill="black"/>
</svg>
