<svg width="20" height="19" viewBox="0 0 20 19" fill="none" xmlns="http://www.w3.org/2000/svg">
<path d="M6 12H14V11.45C14 10.7167 13.6333 10.125 12.9 9.675C12.1667 9.225 11.2 9 10 9C8.8 9 7.83333 9.225 7.1 9.675C6.36667 10.125 6 10.7167 6 11.45V12ZM10 8C10.55 8 11.021 7.80433 11.413 7.413C11.805 7.02167 12.0007 6.55067 12 6C11.9993 5.44933 11.8037 4.97867 11.413 4.588C11.0223 4.19733 10.5513 4.00133 10 4C9.44867 3.99867 8.978 4.19467 8.588 4.588C8.198 4.98133 8.002 5.452 8 6C7.998 6.548 8.194 7.019 8.588 7.413C8.982 7.807 9.45267 8.00267 10 8ZM4 16L1.7 18.3C1.38334 18.6167 1.02067 18.6877 0.612002 18.513C0.203335 18.3383 -0.000665038 18.0257 1.62866e-06 17.575V2C1.62866e-06 1.45 0.196002 0.979333 0.588002 0.588C0.980002 0.196667 1.45067 0.000666667 2 0H18C18.55 0 19.021 0.196 19.413 0.588C19.805 0.98 20.0007 1.45067 20 2V14C20 14.55 19.8043 15.021 19.413 15.413C19.0217 15.805 18.5507 16.0007 18 16H4Z" fill="black"/>
</svg>
