<svg width="101" height="96" viewBox="0 0 101 96" fill="none" xmlns="http://www.w3.org/2000/svg">
<path d="M95.3681 95.1992C95.334 94.6838 95.2485 94.1684 95.2827 93.6529C95.3169 93.1081 95.0433 92.9608 94.4792 92.9755C93.6757 92.9902 92.8894 92.9755 92.0859 92.9755C84.4786 92.9755 76.8714 92.9755 69.2812 92.9755C68.0845 92.9755 68.0845 92.9608 68.0845 91.9594C68.0845 90.0008 68.0504 88.0274 68.0674 86.0688C68.0674 85.4797 67.811 85.2735 67.1614 85.3177C66.8195 85.3325 66.4776 85.3177 66.1357 85.3177C57.8276 85.2883 49.5023 85.2441 41.1941 85.2441C40.3052 85.2441 40.1 85.0232 40.1171 84.2869C40.1684 82.3282 40.1342 80.3549 40.1342 78.3963C40.1342 77.439 40.1342 77.4243 38.9889 77.4243C35.7066 77.4243 32.4415 77.4391 29.1593 77.4243C24.0137 77.4096 18.851 77.3801 13.7054 77.3801C13.0387 77.3801 12.8677 77.1592 12.8677 76.6585C12.8677 74.5527 12.7993 72.4468 12.8335 70.3261C12.8506 69.6045 12.5771 69.4278 11.7566 69.4278C5.03822 69.4426 -1.68011 69.4131 -8.39844 69.3984C-8.39844 63.9937 -8.39844 58.6038 -8.39844 53.1992C-7.8343 53.2139 -7.25307 53.2434 -6.68894 53.2139C-6.00514 53.1698 -5.8 53.4496 -5.8 53.9944C-5.81709 56.0562 -5.7829 58.1179 -5.81709 60.1796C-5.83419 60.8865 -5.57776 61.0926 -4.75721 61.0926C3.27744 61.0632 11.3121 61.0779 19.3467 61.0779C20.5092 61.0779 20.5092 61.0779 20.5092 62.094C20.5092 64.2736 20.5092 66.4531 20.5092 68.6768C21.1417 68.7062 21.5349 68.7357 21.9281 68.7357C30.185 68.7357 38.4418 68.7357 46.7158 68.7357C47.8441 68.7357 47.8441 68.7357 47.8441 69.7224C47.8441 71.8135 47.8783 73.89 47.827 75.9811C47.8099 76.6438 48.0663 76.8058 48.8014 76.8058C57.1779 76.7911 65.5545 76.7911 73.931 76.7911C75.2302 76.7911 75.2303 76.7911 75.2303 77.925C75.2473 79.9131 75.2986 81.9012 75.2473 83.8893C75.2302 84.6109 75.538 84.7434 76.2901 84.7434C84.1538 84.7287 92.0175 84.7287 99.8812 84.7287C102.394 84.7287 102.121 84.4047 102.138 86.702C102.155 88.3219 102.138 89.9419 102.121 91.5618C102.121 91.9447 102.121 92.2981 102.77 92.2981C105.847 92.2686 108.924 92.2392 112.002 92.2245C112.002 93.2111 112.002 94.1831 112.002 95.1698C106.429 95.1992 100.89 95.1992 95.3681 95.1992Z" fill="black"/>
<path d="M38.6593 0.753906C39.7331 1.43786 40.7497 2.16546 41.2365 3.44605C42.5108 6.83669 40.2629 11.0714 36.1965 10.7512C33.9056 10.5766 32.0729 9.04862 31.5002 6.74938C30.9704 4.62477 31.8581 2.36919 33.7195 1.14681C33.8913 1.0304 34.0631 0.884875 34.2349 0.753906C35.6954 0.753906 37.1845 0.753906 38.6593 0.753906Z" fill="black"/>
<path d="M22.0382 25.0585C21.3366 25.4805 20.635 25.8734 19.9477 26.31C18.0863 27.4741 16.2393 28.6529 14.3779 29.8461C13.9054 30.1517 13.6048 30.1081 13.2611 29.6133C12.4163 28.42 11.5143 27.2704 10.6266 26.1062C10.1254 25.4368 10.1254 25.2622 10.8127 24.782C11.8723 24.0544 12.9604 23.3559 14.0486 22.6428C18.4873 19.7033 22.8973 16.7056 27.3788 13.8242C29.9132 12.1944 32.6623 11.6705 35.5832 12.7474C37.9457 13.6205 39.5636 16.4145 39.177 19.2085C38.9193 21.1003 38.5041 22.963 38.0889 24.8257C37.8454 25.9171 37.8311 26.0335 38.8477 26.2954C40.4943 26.732 42.1695 27.1103 43.8304 27.5178C44.0882 27.576 44.3173 27.707 44.575 27.7506C46.2216 28.0562 45.8636 28.26 45.5773 29.6133C45.3195 30.8357 45.0475 32.0581 44.7898 33.295C44.6752 33.8189 44.5464 34.139 43.8448 33.9789C41.3391 33.4114 38.8191 32.9312 36.3134 32.4073C35.7264 32.2763 35.4257 32.4655 35.2825 33.0622C34.8673 34.7502 34.4091 36.4237 34.0368 38.1263C33.9652 38.461 34.0941 38.9703 34.3088 39.2323C36.7573 42.1281 39.2343 44.9949 41.7257 47.8471C42.1982 48.3855 42.4273 48.9967 42.4129 49.6952C42.37 51.5579 42.2984 53.4206 42.2841 55.2833C42.2554 58.0482 42.2698 60.8131 42.2698 63.578C42.2698 64.0145 42.2698 64.4511 42.2268 64.8877C42.1409 66.0082 42.0693 66.0955 40.9525 66.0955C39.2629 66.0955 37.5734 66.0955 35.7836 66.0955C35.7836 65.8626 35.7836 65.6444 35.7836 65.4406C35.8838 60.784 35.9984 56.1418 36.07 51.4851C36.07 51.034 35.9125 50.5102 35.6548 50.1609C33.235 46.9303 30.7723 43.7289 28.3238 40.5274C28.152 40.3091 27.9516 40.0908 27.6652 39.7561C27.6079 40.0908 27.5507 40.2946 27.5507 40.4837C27.4934 42.5938 27.4361 44.7039 27.4075 46.8139C27.4075 47.3232 27.25 47.6434 26.8204 47.949C23.1407 50.5247 19.4752 53.1295 15.7954 55.7053C14.8934 56.331 13.9627 56.9131 13.0463 57.5097C12.6311 57.7862 12.3161 57.8008 12.0011 57.2623C11.2566 55.9672 10.4404 54.7157 9.65294 53.4497C8.95135 52.3146 8.9943 52.1691 10.0682 51.4415C13.1179 49.3896 16.1534 47.3087 19.2318 45.2859C19.9763 44.7912 20.1625 44.2382 20.0193 43.4087C19.7186 41.7498 19.4466 40.0763 19.1745 38.4173C18.8023 36.1472 19.017 33.9207 19.7759 31.767C20.5348 29.5842 21.3795 27.4305 22.1813 25.2622C22.1098 25.1895 22.0668 25.1312 22.0382 25.0585Z" fill="black"/>
<path d="M82.7713 37.8045C82.0983 34.5739 81.454 31.4743 80.7667 28.1419C81.8692 28.6366 82.7569 29.0295 83.6303 29.4225C85.1051 30.0919 86.5656 30.8049 88.069 31.4161C88.7276 31.678 89.0283 32.1291 89.1858 32.7694C90.1022 36.5384 91.0328 40.322 91.9635 44.091C92.2213 45.1388 92.5219 46.1865 92.8369 47.2197C92.9515 47.5981 92.8369 47.7872 92.4933 47.9619C89.0999 49.7081 85.7208 51.4835 82.3417 53.2443C81.3251 53.7682 80.3372 54.3648 79.2919 54.845C78.9483 55.0051 78.4185 55.0779 78.0892 54.9323C75.6408 53.8118 73.221 52.6185 70.7869 51.4398C70.7297 51.4107 70.6867 51.338 70.5435 51.1779C73.3213 49.679 76.056 48.2092 78.9626 46.6522C77.946 46.1283 77.1013 45.6772 76.2279 45.2697C70.9015 42.7813 65.5608 40.2929 60.2201 37.8045C59.3181 37.3825 58.4017 36.9605 57.4853 36.553C57.0844 36.3784 56.9413 36.1746 57.1417 35.7235C58.2442 33.2642 59.3324 30.8049 60.4349 28.331C60.6783 27.7926 60.9933 27.749 61.5231 27.9963C65.0024 29.6262 68.4817 31.2269 71.9754 32.8422C75.3401 34.3993 78.7049 35.9709 82.084 37.528C82.2701 37.6153 82.4706 37.6735 82.7713 37.8045Z" fill="black"/>
<path d="M36.4706 10.8552C39.4201 10.8552 41.8112 8.42498 41.8112 5.42721C41.8112 2.42944 39.4201 -0.000732422 36.4706 -0.000732422C33.521 -0.000732422 31.1299 2.42944 31.1299 5.42721C31.1299 8.42498 33.521 10.8552 36.4706 10.8552Z" fill="black"/>
<defs>
</defs>
</svg>
