<svg width="73" height="73" viewBox="0 0 73 73" fill="none" xmlns="http://www.w3.org/2000/svg">
<path d="M36.5 73C52.5043 73 61.4237 73 67.1802 67.1802C73 61.3605 73 52.5043 73 36.5C73 20.4957 73 11.5763 67.1802 5.81976C61.3605 -1.80983e-06 52.5043 0 36.5 0C20.4957 0 11.5763 -1.80983e-06 5.81976 5.81976C0 11.5763 0 20.4324 0 36.4367C0 52.4411 0 61.3605 5.81976 67.117C11.6395 73 20.4957 73 36.5 73Z" fill="black"/>
<path d="M50.2268 29.2251C47.4434 29.2251 45.4192 31.3759 45.4192 33.9695C45.4192 36.1202 46.9373 37.765 48.8351 38.271L44.9131 44.2806H48.5821L51.9347 38.7138H54.4018V44.2806H57.4382V29.2251H50.2268ZM50.6696 36.1835C49.4044 36.1835 48.6453 35.1714 48.6453 34.096C48.6453 33.0206 49.3412 31.8819 50.6696 31.8819H54.4018V36.1835H50.6696Z" fill="white"/>
<path d="M33.5268 29.2251L32.5146 32.0085H36.6897L34.2226 41.0544C33.5268 43.7112 36.2469 45.6722 38.5874 44.154L43.9011 40.5483L42.3197 38.271L37.006 41.94L40.6117 29.2884H33.5268V29.2251Z" fill="white"/>
<path d="M41.3708 25.4297C41.3708 26.5051 40.928 27.3275 39.2833 27.3275C37.7019 27.3275 37.1958 26.5051 37.1958 25.4297C37.1958 24.3544 37.7651 23.532 39.2833 23.532C40.8648 23.4687 41.3708 24.3544 41.3708 25.4297Z" fill="white"/>
<path d="M28.4661 41.4974V25.7461H16.7633V34.1594C16.7633 38.1447 15.6246 40.5485 14.9288 41.4974H13.5371V48.3925H16.5102V44.344H27.6437V48.3925H30.6168V41.4974H28.4661ZM19.7364 33.9697V28.5295H25.4297V41.4974H18.0284C18.7243 40.422 19.7364 37.6386 19.7364 33.9697Z" fill="white"/>
</svg>
