<svg width="43" height="43" viewBox="0 0 43 43" fill="none" xmlns="http://www.w3.org/2000/svg">
<path d="M21.2051 0C17.0111 0 12.9113 1.24366 9.42418 3.5737C5.93702 5.90375 3.21911 9.21553 1.61415 13.0903C0.00918781 16.965 -0.410744 21.2286 0.407459 25.342C1.22566 29.4554 3.24525 33.2338 6.21083 36.1993C9.17642 39.1649 12.9548 41.1845 17.0682 42.0027C21.1816 42.8209 25.4452 42.401 29.3199 40.796C33.1947 39.1911 36.5064 36.4732 38.8365 32.986C41.1665 29.4988 42.4102 25.3991 42.4102 21.2051C42.4102 15.5811 40.1761 10.1876 36.1994 6.21083C32.2226 2.2341 26.829 0 21.2051 0ZM18.1758 29.672L10.6026 22.0987L13.0108 19.6904L18.1758 24.8554L29.3993 13.6318L31.8167 16.0341L18.1758 29.672Z" fill="#078049"/>
</svg>
