<?xml version="1.0" encoding="UTF-8" standalone="no"?>
<svg
   xmlns:dc="http://purl.org/dc/elements/1.1/"
   xmlns:cc="http://creativecommons.org/ns#"
   xmlns:rdf="http://www.w3.org/1999/02/22-rdf-syntax-ns#"
   xmlns:svg="http://www.w3.org/2000/svg"
   xmlns="http://www.w3.org/2000/svg"
   xmlns:sodipodi="http://sodipodi.sourceforge.net/DTD/sodipodi-0.dtd"
   xmlns:inkscape="http://www.inkscape.org/namespaces/inkscape"
   inkscape:version="1.0 (4035a4f, 2020-05-01)"
   sodipodi:docname="register.svg"
   id="svg76"
   version="1.1"
   viewBox="0 0 232.11352 244.08239"
   height="244.0824"
   width="232.11353"
   data-name="Layer 1">
  <metadata
     id="metadata82">
    <rdf:RDF>
      <cc:Work
         rdf:about="">
        <dc:format>image/svg+xml</dc:format>
        <dc:type
           rdf:resource="http://purl.org/dc/dcmitype/StillImage" />
        <dc:title></dc:title>
      </cc:Work>
    </rdf:RDF>
  </metadata>
  <defs
     id="defs80" />
  <sodipodi:namedview
     inkscape:current-layer="svg76"
     inkscape:window-maximized="1"
     inkscape:window-y="23"
     inkscape:window-x="0"
     inkscape:cy="255.71909"
     inkscape:cx="25.390186"
     inkscape:zoom="0.67153398"
     fit-margin-bottom="0"
     fit-margin-right="0"
     fit-margin-left="0"
     fit-margin-top="0"
     showgrid="false"
     id="namedview78"
     inkscape:window-height="855"
     inkscape:window-width="1440"
     inkscape:pageshadow="2"
     inkscape:pageopacity="0"
     guidetolerance="10"
     gridtolerance="10"
     objecttolerance="10"
     borderopacity="1"
     bordercolor="#666666"
     pagecolor="#ffffff" />
  <path
     style="stroke-width:0.466862"
     id="path36"
     fill="#ffb6b6"
     d="m 109.63168,86.935437 a 5.2208869,5.2208869 0 0 0 -5.56883,5.751336 l -16.798845,7.875467 8.222323,5.0346 14.691902,-8.250544 a 5.2491834,5.2491834 0 0 0 -0.54655,-10.410868 z" />
  <polygon
     transform="matrix(0.46686175,0,0,0.46686175,-39.738646,0)"
     id="polygon38"
     fill="#ffb6b6"
     points="183.476,510.769 189.388,462.837 171.047,462.838 171.049,510.77 " />
  <path
     style="stroke-width:0.466862"
     id="path40"
     fill="#2f2e41"
     d="m 38.637861,236.56474 11.425428,-4.7e-4 h 4.67e-4 a 7.281568,7.281568 0 0 1 7.281176,7.28106 v 0.23661 l -18.706721,4.6e-4 z" />
  <polygon
     transform="matrix(0.46686175,0,0,0.46686175,-39.738646,0)"
     id="polygon42"
     fill="#ffb6b6"
     points="246.886,510.769 252.798,462.837 234.457,462.838 234.459,510.77 " />
  <path
     style="stroke-width:0.466862"
     id="path44"
     fill="#2f2e41"
     d="m 68.241565,236.56474 11.425428,-4.7e-4 h 4.67e-4 a 7.281568,7.281568 0 0 1 7.281176,7.28106 v 0.23661 l -18.706721,4.6e-4 z" />
  <polygon
     transform="matrix(0.46686175,0,0,0.46686175,-39.738646,0)"
     id="polygon46"
     fill="#2f2e41"
     points="242.76,262.159 249.067,275.738 260.438,397.176 251.599,501.554 230.926,501.554 206.532,337.03 195.074,497.764 167.18,496.638 161.825,278.718 " />
  <path
     style="stroke-width:0.466862"
     id="path48"
     fill="#e4e4e4"
     d="m 26.671779,70.073315 12.208192,-4.966858 17.231326,0.966404 15.319069,5.582626 5.110983,57.076053 c -13.327176,7.27754 -26.827113,9.2639 -40.561948,4.06012 L 23.232278,95.616517 Z" />
  <path
     style="stroke-width:0.466862"
     id="path50"
     fill="#e4e4e4"
     d="m 66.66431,73.164356 5.417519,-1.508897 c 0,0 4.097646,-2.66432 5.445826,5.255719 1.34818,7.920039 8.285274,20.239293 8.285274,20.239293 L 97.68844,90.821585 103.1866,102.82869 84.432377,114.18912 64.682622,94.289439 Z" />
  <path
     style="stroke-width:0.466862"
     fill="#ffb6b6"
     d="m 36.947994,54.531847 v 0 a 12.422776,12.422776 0 1 1 22.735635,-10.0196 l 0.07102,0.164336 a 12.425019,12.425019 0 1 1 -22.811365,9.857281 z"
     data-name="Path 40"
     id="a80a6b0c-a21b-4eb6-b764-70793a425e46-42" />
  <path
     style="stroke-width:0.466862"
     fill="#2f2e41"
     d="m 53.81351,43.162172 c 2.583091,0.468668 6.580538,2.094911 8.799033,0.187067 A 10.87371,10.87371 0 0 0 58.586794,40.404615 2.4810994,2.4810994 0 0 1 57.753487,39.933664 C 56.99712,39.169299 57.581528,37.852222 57.23542,36.818762 a 2.669128,2.669128 0 0 0 -1.837829,-1.515391 c -0.76999,-0.230391 -1.576872,-0.267782 -2.333277,-0.547162 -1.789995,-0.672748 -3.062571,-2.598001 -4.89738,-3.121162 -1.598637,-0.462422 -3.207237,0.256256 -4.586916,1.094931 -1.37968,0.838675 -2.744498,1.833735 -4.358584,1.992902 -1.206142,0.110021 -1.96969,2.093978 -3.180585,2.152102 -2.537477,0.123438 -2.39656,-1.548996 -2.584243,1.116733 -0.108312,1.590738 -2.381261,4.755351 -2.344346,6.359936 0.03758,1.051406 -0.148439,2.092755 -0.118443,3.147433 a 8.1769015,8.1769015 0 0 0 2.263117,5.374265 c 1.155231,1.188004 2.657821,1.989298 3.630275,3.343426 0.5057,0.718883 0.856523,1.558025 1.445208,2.208485 0.588685,0.650459 1.585799,1.041946 2.242832,0.577559 0.657033,-0.464388 0.669274,-1.469415 0.995265,-2.234181 a 2.4431669,2.4431669 0 0 1 2.428092,-1.478084 2.8613116,2.8613116 0 0 1 2.334682,1.905981 c -0.307662,-1.690076 -1.118759,-3.273634 -1.426995,-4.964995 -0.308237,-1.691361 0.09346,-3.711859 1.549882,-4.372221 0.625301,-0.290981 1.470008,-0.369161 1.721371,-1.039668 0.153873,-0.403868 0.01312,-0.881048 0.07241,-1.317858 0.320048,-2.140542 3.879271,-2.670141 5.563549,-2.339621 z"
     data-name="Path 72"
     id="b51b91e7-03ed-46d5-9b2a-c48431fd2f0d-43" />
  <path
     style="stroke-width:0.466862"
     id="path54"
     fill="#ffb6b6"
     d="m 37.443092,132.13174 a 5.2208916,5.2208916 0 0 0 -6.821849,-4.18951 l -11.330091,-14.69195 -3.132292,9.11828 11.239459,12.55379 a 5.2491834,5.2491834 0 0 0 10.044773,-2.79059 z" />
  <path
     style="stroke-width:0.466862"
     id="path56"
     fill="#e4e4e4"
     d="m 30.585215,72.844397 -3.913436,-2.771082 c 0,0 -8.952942,-0.512871 -10.25537,6.837868 L 0,103.91687 20.35429,131.99746 30.222566,121.6094 17.770896,107.05835 28.225444,87.863087 Z" />
  <path
     style="stroke-width:0.466862"
     id="path58"
     fill="#3f3d56"
     d="m 125.92927,77.123581 h -0.20531 V 71.49927 a 3.2551935,3.2551935 0 0 0 -3.25519,-3.255198 H 110.5529 a 3.2551935,3.2551935 0 0 0 -3.2552,3.255189 v 30.855409 a 3.2551982,3.2551982 0 0 0 3.25519,3.2552 h 11.91586 a 3.2551982,3.2551982 0 0 0 3.2552,-3.25519 V 81.127052 h 0.20532 z" />
  <path
     style="stroke-width:0.466862"
     id="path60"
     fill="#e7eef3"
     d="m 122.6001,69.090959 h -1.55541 a 1.1549319,1.1549319 0 0 1 -1.06932,1.591126 h -6.82645 a 1.1549413,1.1549413 0 0 1 -1.06931,-1.591126 h -1.45276 a 2.4309491,2.4309491 0 0 0 -2.43095,2.430949 v 30.810132 a 2.4309491,2.4309491 0 0 0 2.43095,2.43095 h 11.97325 a 2.4309491,2.4309491 0 0 0 2.43095,-2.43095 v 0 -30.810137 a 2.4309491,2.4309491 0 0 0 -2.43095,-2.430944 z" />
  <path
     style="stroke-width:0.466862"
     id="path62"
     fill="#ffffff"
     d="M 230.0814,58.119096 H 142.69953 A 2.0344668,2.0344668 0 0 1 140.6674,56.086959 V 2.0321371 A 2.0344668,2.0344668 0 0 1 142.69953,0 h 87.38187 a 2.0344621,2.0344621 0 0 1 2.03213,2.0321371 V 56.086959 a 2.0344621,2.0344621 0 0 1 -2.03213,2.032137 z" />
  <path
     style="stroke-width:0.466862"
     id="path64"
     fill="#3f3d56"
     d="M 230.0814,58.119096 H 142.69953 A 2.0344668,2.0344668 0 0 1 140.6674,56.086959 V 2.0321371 A 2.0344668,2.0344668 0 0 1 142.69953,0 h 87.38187 a 2.0344621,2.0344621 0 0 1 2.03213,2.0321371 V 56.086959 a 2.0344621,2.0344621 0 0 1 -2.03213,2.032137 z M 142.69953,0.81285299 A 1.2206147,1.2206147 0 0 0 141.48025,2.0321371 V 56.086959 a 1.2206147,1.2206147 0 0 0 1.21928,1.219284 h 87.38187 a 1.2206147,1.2206147 0 0 0 1.21928,-1.219284 V 2.0321371 A 1.2206147,1.2206147 0 0 0 230.0814,0.81285299 Z" />
  <path
     style="stroke-width:0.466862"
     id="path66"
     fill="#cccccc"
     d="m 212.80824,18.052783 h -52.83555 a 1.828931,1.828931 0 1 1 0,-3.657862 h 52.83555 a 1.828931,1.828931 0 0 1 0,3.657862 z" />
  <path
     style="stroke-width:0.466862"
     id="path68"
     fill="#cccccc"
     d="m 212.80824,30.652028 h -52.83555 a 1.828931,1.828931 0 1 1 0,-3.657862 h 52.83555 a 1.828931,1.828931 0 0 1 0,3.657862 z" />
  <circle
     style="stroke-width:0.466862"
     id="circle70"
     fill="#e7eef3"
     r="6.5360646"
     cy="44.092335"
     cx="208.10109" />
</svg>
