<?xml version="1.0" encoding="UTF-8" standalone="no"?>
<svg
   xmlns:dc="http://purl.org/dc/elements/1.1/"
   xmlns:cc="http://creativecommons.org/ns#"
   xmlns:rdf="http://www.w3.org/1999/02/22-rdf-syntax-ns#"
   xmlns:svg="http://www.w3.org/2000/svg"
   xmlns="http://www.w3.org/2000/svg"
   xmlns:sodipodi="http://sodipodi.sourceforge.net/DTD/sodipodi-0.dtd"
   xmlns:inkscape="http://www.inkscape.org/namespaces/inkscape"
   width="53.322105mm"
   height="104.17607mm"
   viewBox="0 0 53.322105 104.17607"
   version="1.1"
   id="svg8"
   inkscape:version="1.0 (4035a4f, 2020-05-01)"
   sodipodi:docname="svoi-phone-img2.svg">
  <defs
     id="defs2">
    <clipPath
       id="clipPath1849"
       clipPathUnits="userSpaceOnUse">
      <path
         id="path1847"
         d="m 512.289,210.492 c 0,-36.177 29.328,-65.505 65.505,-65.505 v 0 c 36.177,0 65.504,29.328 65.504,65.505 v 0 c 0,36.176 -29.327,65.504 -65.504,65.504 v 0 c -36.177,0 -65.505,-29.328 -65.505,-65.504" />
    </clipPath>
    <linearGradient
       id="linearGradient1879"
       spreadMethod="pad"
       gradientTransform="matrix(16.178485,-86.040117,86.040117,16.178485,111.06254,201.90958)"
       gradientUnits="userSpaceOnUse"
       y2="0"
       x2="1"
       y1="0"
       x1="0">
      <stop
         id="stop1871"
         offset="0"
         style="stop-opacity:1;stop-color:#00d5cf" />
      <stop
         id="stop1873"
         offset="0.00723453"
         style="stop-opacity:1;stop-color:#00d5cf" />
      <stop
         id="stop1875"
         offset="0.999283"
         style="stop-opacity:1;stop-color:#00a8c0" />
      <stop
         id="stop1877"
         offset="1"
         style="stop-opacity:1;stop-color:#00a8c0" />
    </linearGradient>
    <clipPath
       id="clipPath1889"
       clipPathUnits="userSpaceOnUse">
      <path
         id="path1887"
         d="m 512.289,210.492 c 0,-36.177 29.328,-65.505 65.505,-65.505 v 0 c 36.177,0 65.504,29.328 65.504,65.505 v 0 c 0,36.176 -29.327,65.504 -65.504,65.504 v 0 c -36.177,0 -65.505,-29.328 -65.505,-65.504" />
    </clipPath>
    <clipPath
       id="clipPath1897"
       clipPathUnits="userSpaceOnUse">
      <path
         id="path1895"
         d="m 569.904,240.615 h 8.856 v -9.857 h -8.856 z" />
    </clipPath>
    <clipPath
       id="clipPath1917"
       clipPathUnits="userSpaceOnUse">
      <path
         id="path1915"
         d="m 572.865,169.757 h 30.647 v -59.651 h -30.647 z" />
    </clipPath>
    <clipPath
       id="clipPath1949"
       clipPathUnits="userSpaceOnUse">
      <path
         id="path1947"
         d="M 0,595.28 H 841.89 V 0 H 0 Z" />
    </clipPath>
  </defs>
  <sodipodi:namedview
     inkscape:bbox-paths="false"
     inkscape:snap-others="false"
     inkscape:snap-nodes="true"
     inkscape:bbox-nodes="false"
     inkscape:snap-bbox="false"
     id="base"
     pagecolor="#ffffff"
     bordercolor="#666666"
     borderopacity="1.0"
     inkscape:pageopacity="0.0"
     inkscape:pageshadow="2"
     inkscape:zoom="1.021665"
     inkscape:cx="270.87644"
     inkscape:cy="197.25726"
     inkscape:document-units="mm"
     inkscape:current-layer="layer1"
     inkscape:document-rotation="0"
     showgrid="false"
     fit-margin-top="0"
     fit-margin-left="0"
     fit-margin-right="0"
     fit-margin-bottom="0"
     inkscape:window-width="1440"
     inkscape:window-height="776"
     inkscape:window-x="0"
     inkscape:window-y="23"
     inkscape:window-maximized="1" />
  <metadata
     id="metadata5">
    <rdf:RDF>
      <cc:Work
         rdf:about="">
        <dc:format>image/svg+xml</dc:format>
        <dc:type
           rdf:resource="http://purl.org/dc/dcmitype/StillImage" />
        <dc:title></dc:title>
      </cc:Work>
    </rdf:RDF>
  </metadata>
  <g
     inkscape:label="Layer 1"
     inkscape:groupmode="layer"
     id="layer1"
     transform="translate(-83.719453,-71.863849)">
    <g
       transform="translate(2.1166667)"
       id="g1155">
      <g
         style="opacity:1"
         id="g1367">
        <path
           id="path1369"
           d="m 90.159712,72.657379 h 36.208258 c 4.30092,0 7.76339,3.462475 7.76339,7.763396 V 167.483 c 0,4.30092 -3.46247,7.76339 -7.76339,7.76339 H 90.159712 c -4.300921,0 -7.763395,-3.46247 -7.763395,-7.76339 V 80.420775 c 0,-4.300921 3.462474,-7.763396 7.763395,-7.763396 z"
           style="color:#000000;font-style:normal;font-variant:normal;font-weight:normal;font-stretch:normal;font-size:medium;line-height:normal;font-family:sans-serif;font-variant-ligatures:normal;font-variant-position:normal;font-variant-caps:normal;font-variant-numeric:normal;font-variant-alternates:normal;font-variant-east-asian:normal;font-feature-settings:normal;font-variation-settings:normal;text-indent:0;text-align:start;text-decoration:none;text-decoration-line:none;text-decoration-style:solid;text-decoration-color:#000000;letter-spacing:normal;word-spacing:normal;text-transform:none;writing-mode:lr-tb;direction:ltr;text-orientation:mixed;dominant-baseline:auto;baseline-shift:baseline;text-anchor:start;white-space:normal;shape-padding:0;shape-margin:0;inline-size:0;clip-rule:nonzero;display:inline;overflow:visible;visibility:visible;isolation:auto;mix-blend-mode:normal;color-interpolation:sRGB;color-interpolation-filters:linearRGB;solid-color:#000000;solid-opacity:1;vector-effect:none;fill:#424242;fill-opacity:1;fill-rule:nonzero;stroke:none;stroke-width:1.58706;stroke-linecap:round;stroke-linejoin:round;stroke-miterlimit:4;stroke-dasharray:none;stroke-dashoffset:0;stroke-opacity:1.0;color-rendering:auto;image-rendering:auto;shape-rendering:auto;text-rendering:auto;enable-background:accumulate;stop-color:#000000;stop-opacity:1;" />
        <path
           id="path1371"
           d="M 90.160156 71.863281 C 85.433345 71.863281 81.603516 75.693111 81.603516 80.419922 L 81.603516 167.48242 C 81.603516 172.20923 85.433346 176.03906 90.160156 176.03906 L 126.36719 176.03906 C 131.094 176.03906 134.92578 172.20923 134.92578 167.48242 L 134.92578 80.419922 C 134.92578 75.693112 131.094 71.863281 126.36719 71.863281 L 90.160156 71.863281 z M 90.160156 73.451172 L 126.36719 73.451172 C 130.24222 73.451172 133.33789 76.54489 133.33789 80.419922 L 133.33789 167.48242 C 133.33789 171.35745 130.24222 174.45313 126.36719 174.45312 L 90.160156 174.45312 C 86.285124 174.45312 83.189453 171.35745 83.189453 167.48242 L 83.189453 80.419922 C 83.189453 76.544891 86.285125 73.451172 90.160156 73.451172 z "
           style="color:#000000;font-style:normal;font-variant:normal;font-weight:normal;font-stretch:normal;font-size:medium;line-height:normal;font-family:sans-serif;font-variant-ligatures:normal;font-variant-position:normal;font-variant-caps:normal;font-variant-numeric:normal;font-variant-alternates:normal;font-variant-east-asian:normal;font-feature-settings:normal;font-variation-settings:normal;text-indent:0;text-align:start;text-decoration:none;text-decoration-line:none;text-decoration-style:solid;text-decoration-color:#000000;letter-spacing:normal;word-spacing:normal;text-transform:none;writing-mode:lr-tb;direction:ltr;text-orientation:mixed;dominant-baseline:auto;baseline-shift:baseline;text-anchor:start;white-space:normal;shape-padding:0;shape-margin:0;inline-size:0;clip-rule:nonzero;display:inline;overflow:visible;visibility:visible;isolation:auto;mix-blend-mode:normal;color-interpolation:sRGB;color-interpolation-filters:linearRGB;solid-color:#000000;solid-opacity:1;vector-effect:none;fill:#666567;fill-opacity:1;fill-rule:nonzero;stroke:none;stroke-width:1.58706;stroke-linecap:round;stroke-linejoin:round;stroke-miterlimit:4;stroke-dasharray:none;stroke-dashoffset:0;stroke-opacity:1.0;color-rendering:auto;image-rendering:auto;shape-rendering:auto;text-rendering:auto;enable-background:accumulate;stop-color:#000000;stop-opacity:1;" />
      </g>
      <g
         id="g1095"
         transform="translate(-2.0488278,-0.13906178)">
        <rect
           style="fill:#f1f1f1;fill-opacity:1;stroke:none;stroke-width:1.39784;stroke-linecap:round;stroke-linejoin:round;stroke-opacity:1;stop-color:#000000"
           id="rect3308"
           width="28.71773"
           height="7.2619543"
           x="99.834198"
           y="113.96816"
           ry="1.4365813" />
        <rect
           ry="1.4365813"
           y="132.69243"
           x="99.834198"
           height="7.2619543"
           width="28.71773"
           id="rect3312"
           style="fill:#f1f1f1;fill-opacity:1;stroke:none;stroke-width:1.39784;stroke-linecap:round;stroke-linejoin:round;stroke-opacity:1;stop-color:#000000" />
        <rect
           style="fill:#f2f2f2;fill-opacity:1;stroke:none;stroke-width:1.39784;stroke-linecap:round;stroke-linejoin:round;stroke-opacity:1;stop-color:#000000"
           id="rect3314"
           width="28.71773"
           height="7.2619543"
           x="92.068802"
           y="123.39201"
           ry="1.4365813" />
        <circle
           style="fill:#00a8c0;fill-opacity:1;stroke:none;stroke-width:1.32292;stroke-linecap:round;stroke-linejoin:round;stroke-opacity:1;stop-color:#000000"
           id="path3316"
           cx="130.6976"
           cy="119.90932"
           r="1.2352779" />
        <circle
           r="1.2352779"
           cy="138.98763"
           cx="130.6976"
           id="circle3318"
           style="fill:#00a8c0;fill-opacity:1;stroke:none;stroke-width:1.32292;stroke-linecap:round;stroke-linejoin:round;stroke-opacity:1;stop-color:#000000" />
        <circle
           r="1.2352779"
           cy="129.32014"
           cx="89.461136"
           id="circle3322"
           style="fill:#85569c;fill-opacity:1;stroke:none;stroke-width:1.32292;stroke-linecap:round;stroke-linejoin:round;stroke-opacity:1;stop-color:#000000" />
      </g>
    </g>
    <g
       id="g1839"
       transform="matrix(0.17737049,0,0,-0.17737049,99.054737,94.237971)">
      <path
         d="m 0,0 c 0,36.177 29.328,65.505 65.505,65.505 36.177,0 65.504,-29.328 65.504,-65.505 0,-36.177 -29.327,-65.505 -65.504,-65.505 C 29.328,-65.505 0,-36.177 0,0"
         style="fill:#424242;fill-opacity:1;fill-rule:nonzero;stroke:none"
         id="path1841" />
    </g>
    <path
       sodipodi:nodetypes="scccccccscccccccccccscccccccccccsc"
       transform="matrix(0.26458333,0,0,0.26458333,83.719453,71.863849)"
       d="m 103.44141,52.177734 c -4.846076,0 -8.961454,1.508927 -11.142582,6.265625 0.979465,0.0539 0.820019,0.01808 1.664063,0.654297 4.393852,3.30392 4.621608,10.06823 3.078125,14.886719 -1.40281,4.383311 -6.583632,4.833561 -8.650391,0.681641 -0.959773,-1.931339 -0.836001,-4.073277 -1.507813,-6.066407 -0.253606,-0.753339 -0.312231,-1.457342 -0.222656,-2.101562 -7.755554,12.751928 -15.258168,26.597691 -22.888672,39.886723 7.57443,13.19623 21.616636,24.58768 37.923286,24.58768 2.35242,0 4.83812,-2.68655 7.09039,-3.04276 -2.11225,-16.08395 0.64473,-33.141521 5.02148,-48.361331 1.15563,0.08152 3.33388,0.285232 4.02148,-1.074218 -0.32466,-0.0026 -0.79261,0.04832 -1.30273,0.09961 -1.00048,0.09993 -2.17301,0.198909 -2.79883,-0.107422 -3.21978,-1.572419 -3.72968,-6.576005 -1.91797,-9.841797 0.10507,-0.187993 0.19275,-0.378361 0.2793,-0.570312 0.47199,-1.799868 0.81778,-3.59775 1.55664,-5.347657 0.86907,-2.05624 2.82856,-3.331132 4.94922,-3.695312 -0.0934,-0.130167 -0.20605,-0.24204 -0.33984,-0.326172 -0.36964,-5.222113 -6.36253,-5.696792 -11.17969,-6.287109 -1.24245,-0.152504 -2.45874,-0.240235 -3.63281,-0.240235 z M 86.660156,66.498047 c 0.0026,-0.0038 0.004,-0.0095 0.0078,-0.01367 0.03817,0.08152 0.153185,-0.344201 0.271484,-0.771484 0.05783,-0.207723 0.116126,-0.415888 0.166016,-0.564453 -0.220725,0.410195 -0.376979,0.861846 -0.445313,1.349609 z m 0.445313,-1.349609 c 0.0052,-0.01504 0.0068,-0.01161 0.01172,-0.02539 -0.0046,0.0085 -0.0091,0.01682 -0.01367,0.02539 z m 0.01172,-0.02539 c 0.03383,-0.06188 0.06858,-0.122683 0.105468,-0.181641 -0.0038,-0.0064 -0.006,-0.0098 -0.0098,-0.0098 -0.0234,0 -0.05811,0.0859 -0.0957,0.191406 z"
       style="fill:url(#linearGradient1879);stroke:none;stroke-width:1.31473"
       id="path1881" />
    <path
       id="path1853"
       style="fill:#ffffff;fill-opacity:1;fill-rule:nonzero;stroke:none;stroke-width:0.347856"
       d="m 113.1095,89.839309 c -0.0438,0.909295 -0.095,1.350376 0.30298,2.296196 0.3976,0.945821 1.15697,0.835898 1.46621,0.01913 0.3089,-0.816418 0.57397,-2.535522 0.41848,-3.361679 -0.15584,-0.826158 -0.48283,-1.270718 -1.08566,-0.905469 -0.60284,0.365596 -0.95556,1.02687 -0.98896,1.351072 -0.0334,0.324202 -0.11305,0.600747 -0.11305,0.600747" />
    <path
       id="path1857"
       style="fill:#ffffff;fill-opacity:1;fill-rule:nonzero;stroke:none;stroke-width:0.347856"
       d="m 108.01602,87.779133 c -0.82233,0.637968 -1.21541,2.184883 -1.10583,3.220102 0.10922,1.034871 0.76737,1.400815 1.35455,1.388988 0.58718,-0.01183 1.31141,-1.180275 1.3535,-2.198101 0.0424,-1.017826 -0.42577,-2.124704 -0.73188,-2.40751 -0.30612,-0.282459 -0.87034,-0.0035 -0.87034,-0.0035" />
    <path
       id="path1909"
       style="fill:#e32413;fill-opacity:1;fill-rule:nonzero;stroke:none;stroke-width:0.347856"
       d="m 109.22768,91.260509 c 0,0 0.24733,0.766326 1.32881,1.183058 1.08148,0.416731 1.4436,0.459865 1.9633,-0.441777 0.69849,-1.211234 -0.11201,-1.387597 -1.05957,-1.38551 -0.94756,0.0017 -2.23254,0.644229 -2.23254,0.644229" />
    <path
       d="m 109.10398,91.918165 c 0,0 0.54683,0.767022 0.96878,1.730583 0.4216,0.963908 1.062,1.105486 1.56848,0.294982 0.50648,-0.810157 0.54335,-1.162535 0.54335,-1.162535 0,0 -0.9973,-0.313766 -1.51108,-0.756238 -0.51379,-0.442473 -1.40499,-0.981997 -1.40499,-0.981997 z"
       style="opacity:0.479996;fill:#424242;fill-opacity:1;fill-rule:nonzero;stroke:none;stroke-width:0.347856"
       id="path1899" />
    <path
       id="path1937"
       style="fill:#424242;fill-opacity:1;fill-rule:nonzero;stroke:none;stroke-width:0.347856"
       d="m 107.98757,91.023097 c 0.29707,0.184711 0.44178,-0.2515 0.45778,-0.445255 0.0438,-0.520393 0.0539,-0.909991 -0.0849,-1.405338 -0.0362,-0.128359 -0.0891,-0.264718 -0.20315,-0.33429 -0.44038,-0.268544 -0.52039,1.012957 -0.52074,1.241846 -6.9e-4,0.33255 0.0477,0.754499 0.35099,0.943037" />
    <path
       id="path1941"
       style="fill:#424242;fill-opacity:1;fill-rule:nonzero;stroke:none;stroke-width:0.347856"
       d="m 114.34304,89.050859 c -0.31655,0.04453 -0.49117,0.730149 -0.52109,0.985823 -0.0452,0.385773 0.0212,0.788242 0.21289,1.127749 0.0463,0.08209 0.10575,0.165232 0.19549,0.194452 0.49813,0.162448 0.60353,-1.878074 0.38439,-2.192884 -0.0609,-0.08766 -0.14889,-0.132533 -0.27168,-0.11514" />
    <g
       mask="none"
       clip-path="url(#clipPath1949)"
       id="g1945"
       transform="matrix(0.17737049,0,0,-0.17737049,8.189724,131.59333)">
      <g
         transform="translate(509.7971,209.7293)"
         id="g1951">
        <path
           id="path1364"
           d="M 68.150391 -71.150391 C 28.89105 -71.150391 -3 -39.25934 -3 0 C -3 39.25934 28.89105 71.150391 68.150391 71.150391 C 107.40973 71.150391 139.30078 39.25934 139.30078 0 C 139.30078 -39.25934 107.40973 -71.150391 68.150391 -71.150391 z M 68.150391 -65.150391 C 104.16705 -65.150391 133.30078 -36.01666 133.30078 0 C 133.30078 36.01666 104.16705 65.150391 68.150391 65.150391 C 32.133731 65.150391 3 36.01666 3 0 C 3 -36.01666 32.133731 -65.150391 68.150391 -65.150391 z "
           style="color:#000000;font-style:normal;font-variant:normal;font-weight:normal;font-stretch:normal;font-size:medium;line-height:normal;font-family:sans-serif;font-variant-ligatures:normal;font-variant-position:normal;font-variant-caps:normal;font-variant-numeric:normal;font-variant-alternates:normal;font-variant-east-asian:normal;font-feature-settings:normal;font-variation-settings:normal;text-indent:0;text-align:start;text-decoration:none;text-decoration-line:none;text-decoration-style:solid;text-decoration-color:#000000;letter-spacing:normal;word-spacing:normal;text-transform:none;writing-mode:lr-tb;direction:ltr;text-orientation:mixed;dominant-baseline:auto;baseline-shift:baseline;text-anchor:start;white-space:normal;shape-padding:0;shape-margin:0;inline-size:0;clip-rule:nonzero;display:inline;overflow:visible;visibility:visible;isolation:auto;mix-blend-mode:normal;color-interpolation:sRGB;color-interpolation-filters:linearRGB;solid-color:#000000;solid-opacity:1;vector-effect:none;fill:#f1f1f1;fill-opacity:1;fill-rule:nonzero;stroke:none;stroke-width:6;stroke-linecap:butt;stroke-linejoin:miter;stroke-miterlimit:10;stroke-dasharray:none;stroke-dashoffset:0;stroke-opacity:1;color-rendering:auto;image-rendering:auto;shape-rendering:auto;text-rendering:auto;enable-background:accumulate;stop-color:#000000;stop-opacity:1;opacity:1" />
      </g>
    </g>
    <path
       transform="matrix(0.26458333,0,0,0.26458333,83.719453,71.863849)"
       d="M 104.94531 50.943359 C 99.224803 50.917081 93.42091 53.059156 91.441406 58.736328 C 90.439605 59.355566 90.081757 60.825181 89.365234 61.740234 C 89.361455 61.74155 89.353389 61.740872 89.349609 61.742188 C 89.346964 61.745967 89.346837 61.750568 89.345703 61.755859 C 89.264065 61.933346 89.165618 62.096768 89.060547 62.255859 C 88.934311 62.324231 88.814184 62.417203 88.724609 62.564453 C 80.137175 76.681434 71.551239 90.798712 62.964844 104.91602 C 63.261964 105.48281 63.571758 106.04187 63.892578 106.59375 C 71.615368 93.897427 79.338381 81.202174 87.060547 68.505859 C 86.535986 71.598106 86.709523 74.74609 88.693359 77.115234 C 91.191363 80.097044 94.798636 78.503267 96.580078 75.794922 C 96.748267 75.538557 96.899762 75.260581 97.042969 74.972656 C 99.197829 77.621841 101.98244 79.379017 105.36523 80.179688 C 107.68836 80.729246 109.44383 77.389676 110.47852 74.78125 C 111.02152 76.749401 112.09442 78.458684 113.78516 79.640625 C 109.68584 93.688524 106.5921 108.09937 107.30469 122.8125 C 107.39071 124.5869 107.54789 126.34003 107.76758 128.07227 C 108.40452 127.98676 109.03608 127.88595 109.66406 127.77344 C 107.78723 112.19077 110.83528 95.819967 115.32031 80.345703 C 117.81435 80.52319 119.11255 75.405363 119.52539 73.738281 C 120.09073 71.453281 120.12404 69.003006 120.1582 66.660156 C 120.18088 65.187656 120.01387 63.737257 119.77734 62.287109 C 119.50786 60.626604 118.80973 60.257959 118.96484 59.904297 C 119.15684 59.470437 118.99174 59.011967 118.58008 58.783203 C 118.54077 58.760904 118.5022 58.753412 118.46289 58.736328 C 118.33136 53.000158 110.9721 51.240823 106.08789 50.976562 C 105.70843 50.955938 105.32668 50.945111 104.94531 50.943359 z M 104.81445 52.630859 L 104.81641 52.630859 C 108.88813 52.433644 116.74103 53.680425 116.79492 58.882812 C 116.30321 58.98932 115.67456 59.231015 115.05664 59.714844 C 115.04152 59.725426 115.02564 59.725053 115.00977 59.738281 C 114.97575 59.764738 114.94739 59.798544 114.91602 59.826172 C 114.87406 59.860188 114.83379 59.885693 114.79297 59.923828 C 114.76273 59.948773 114.75428 59.971111 114.73047 59.996094 C 111.94322 62.424402 110.11464 66.87215 110.04102 71.09375 C 106.08759 69.869735 101.66671 69.216995 98.144531 71.160156 C 98.630994 67.623531 98.035991 63.556772 96.585938 61.039062 C 95.7524 59.59023 94.786413 58.668513 93.304688 58.476562 C 95.254432 54.016996 100.16953 52.855677 104.81445 52.630859 z M 93.326172 60.326172 C 94.024388 60.302347 94.761413 60.929332 95.503906 62.792969 C 96.601708 65.551276 96.621043 68.700744 96.21875 71.587891 C 96.047915 72.817163 95.626408 73.954897 95.074219 75.056641 C 93.117897 78.964018 89.253373 76.133182 88.632812 73.117188 C 87.987269 69.985501 89.217431 66.084908 90.304688 63.146484 C 91.10505 62.212204 92.162479 60.365881 93.326172 60.326172 z M 117.04883 60.857422 C 117.17091 60.93237 117.30992 60.971853 117.45312 60.986328 C 117.69879 61.847475 118.15499 62.719614 118.28516 63.509766 L 118.2832 63.509766 C 118.81566 66.746632 118.47257 70.230311 117.87695 73.427734 C 117.5916 74.963341 116.25529 80.557405 113.20117 76.958984 C 111.67084 75.155175 111.76378 72.41097 111.95703 70.228516 C 112.25146 66.907505 113.2147 63.393467 115.86914 61.203125 C 116.08987 61.041399 116.46781 60.840969 117.04102 60.859375 C 117.04366 60.859375 117.04505 60.857422 117.04883 60.857422 z M 103.44531 71.570312 C 105.45833 71.570641 107.55228 72.051417 109.49414 72.662109 C 109.41666 72.892169 109.33012 73.140111 109.23828 73.396484 C 105.76081 71.849048 101.45459 71.805393 98.255859 73.830078 C 98.130757 73.672321 98.001112 73.517817 97.882812 73.357422 C 99.500583 72.049923 101.4323 71.569984 103.44531 71.570312 z M 103.74609 73.755859 C 105.32426 73.680591 107.0023 73.987177 108.72461 74.710938 C 107.85951 76.732992 106.58519 78.748126 104.83398 78.333984 C 102.73306 77.837018 100.87584 76.624737 99.365234 75.095703 C 100.6885 74.287803 102.16792 73.831128 103.74609 73.755859 z "
       style="fill:#424242;fill-opacity:1;fill-rule:nonzero;stroke:none;stroke-width:0.670375"
       id="path1143" />
  </g>
</svg>
