<?xml version="1.0" encoding="UTF-8" standalone="no"?>
<svg
   xmlns:dc="http://purl.org/dc/elements/1.1/"
   xmlns:cc="http://creativecommons.org/ns#"
   xmlns:rdf="http://www.w3.org/1999/02/22-rdf-syntax-ns#"
   xmlns:svg="http://www.w3.org/2000/svg"
   xmlns="http://www.w3.org/2000/svg"
   viewBox="0 0 327.83746 178.90527"
   height="178.90527"
   width="327.83746"
   xml:space="preserve"
   id="svg833"
   version="1.1"><metadata
     id="metadata839"><rdf:RDF><cc:Work
         rdf:about=""><dc:format>image/svg+xml</dc:format><dc:type
           rdf:resource="http://purl.org/dc/dcmitype/StillImage" /><dc:title></dc:title></cc:Work></rdf:RDF></metadata><defs
     id="defs837"><clipPath
       id="clipPath849"
       clipPathUnits="userSpaceOnUse"><path
         id="path847"
         d="m 584.94,199.611 c 0,-14.512 11.763,-26.276 26.274,-26.276 v 0 c 14.512,0 26.275,11.764 26.275,26.276 v 0 c 0,14.511 -11.763,26.275 -26.275,26.275 v 0 c -14.511,0 -26.274,-11.764 -26.274,-26.275" /></clipPath><clipPath
       id="clipPath861"
       clipPathUnits="userSpaceOnUse"><path
         id="path859"
         d="m 617.989,136.947 h 5.856 V 134.3 h -5.856 z" /></clipPath><clipPath
       id="clipPath881"
       clipPathUnits="userSpaceOnUse"><path
         id="path879"
         d="m 606.882,135.772 h 3.613 v -4.395 h -3.613 z" /></clipPath><linearGradient
       id="linearGradient919"
       spreadMethod="pad"
       gradientTransform="matrix(0,32.310677,32.310677,0,614.69482,157.92364)"
       gradientUnits="userSpaceOnUse"
       y2="0"
       x2="1"
       y1="0"
       x1="0"><stop
         id="stop911"
         offset="0"
         style="stop-opacity:1;stop-color:#3dbcbf" /><stop
         id="stop913"
         offset="0.00723453"
         style="stop-opacity:1;stop-color:#3dbcbf" /><stop
         id="stop915"
         offset="0.999283"
         style="stop-opacity:1;stop-color:#00a8c0" /><stop
         id="stop917"
         offset="1"
         style="stop-opacity:1;stop-color:#00a8c0" /></linearGradient><clipPath
       id="clipPath929"
       clipPathUnits="userSpaceOnUse"><path
         id="path927"
         d="m 584.94,199.611 c 0,-14.512 11.763,-26.276 26.274,-26.276 v 0 c 14.512,0 26.275,11.764 26.275,26.276 v 0 c 0,14.511 -11.763,26.275 -26.275,26.275 v 0 c -14.511,0 -26.274,-11.764 -26.274,-26.275" /></clipPath><clipPath
       id="clipPath937"
       clipPathUnits="userSpaceOnUse"><path
         id="path935"
         d="m 607.149,209.809 h 5.804 v -7.094 h -5.804 z" /></clipPath><clipPath
       id="clipPath957"
       clipPathUnits="userSpaceOnUse"><path
         id="path955"
         d="m 594.717,171.468 h 7.003 v -26.881 h -7.003 z" /></clipPath><clipPath
       id="clipPath973"
       clipPathUnits="userSpaceOnUse"><path
         id="path971"
         d="m 624.741,176.154 h 9.488 v -30.718 h -9.488 z" /></clipPath><clipPath
       id="clipPath1009"
       clipPathUnits="userSpaceOnUse"><path
         id="path1007"
         d="M 0,595.28 H 841.89 V 0 H 0 Z" /></clipPath><clipPath
       id="clipPath1209"
       clipPathUnits="userSpaceOnUse"><path
         id="path1207"
         d="m 585.677,353.68 h 6.195 v -2.8 h -6.195 z" /></clipPath><clipPath
       id="clipPath1229"
       clipPathUnits="userSpaceOnUse"><path
         id="path1227"
         d="m 573.93,352.437 h 3.821 v -4.648 h -3.821 z" /></clipPath><linearGradient
       id="linearGradient1267"
       spreadMethod="pad"
       gradientTransform="matrix(0,34.174141,34.174141,0,582.19354,375.86609)"
       gradientUnits="userSpaceOnUse"
       y2="0"
       x2="1"
       y1="0"
       x1="0"><stop
         id="stop1259"
         offset="0"
         style="stop-opacity:1;stop-color:#3dbcbf" /><stop
         id="stop1261"
         offset="0.00723453"
         style="stop-opacity:1;stop-color:#3dbcbf" /><stop
         id="stop1263"
         offset="0.999283"
         style="stop-opacity:1;stop-color:#00a8c0" /><stop
         id="stop1265"
         offset="1"
         style="stop-opacity:1;stop-color:#00a8c0" /></linearGradient><clipPath
       id="clipPath1277"
       clipPathUnits="userSpaceOnUse"><path
         id="path1275"
         d="M 0,595.28 H 841.89 V 0 H 0 Z" /></clipPath><clipPath
       id="clipPath1285"
       clipPathUnits="userSpaceOnUse"><path
         id="path1283"
         d="m 574.212,430.744 h 6.14 v -7.503 h -6.14 z" /></clipPath><clipPath
       id="clipPath1305"
       clipPathUnits="userSpaceOnUse"><path
         id="path1303"
         d="m 561.063,390.191 h 7.407 V 361.76 h -7.407 z" /></clipPath><clipPath
       id="clipPath1321"
       clipPathUnits="userSpaceOnUse"><path
         id="path1319"
         d="m 592.819,395.148 h 10.035 v -32.49 h -10.035 z" /></clipPath><clipPath
       id="clipPath1365"
       clipPathUnits="userSpaceOnUse"><path
         id="path1363"
         d="m 507.193,357.476 h 6.329 v -2.138 h -6.329 z" /></clipPath><clipPath
       id="clipPath1381"
       clipPathUnits="userSpaceOnUse"><path
         id="path1379"
         d="m 498.953,358.326 h 7.069 v -3.444 h -7.069 z" /></clipPath><linearGradient
       id="linearGradient1419"
       spreadMethod="pad"
       gradientTransform="matrix(4.7312436,24.707607,-24.707607,4.7312436,497.05084,395.62155)"
       gradientUnits="userSpaceOnUse"
       y2="0"
       x2="1"
       y1="0"
       x1="0"><stop
         id="stop1411"
         offset="0"
         style="stop-opacity:1;stop-color:#3dbcbf" /><stop
         id="stop1413"
         offset="0.00723453"
         style="stop-opacity:1;stop-color:#3dbcbf" /><stop
         id="stop1415"
         offset="0.999283"
         style="stop-opacity:1;stop-color:#00a8c0" /><stop
         id="stop1417"
         offset="1"
         style="stop-opacity:1;stop-color:#00a8c0" /></linearGradient><clipPath
       id="clipPath1429"
       clipPathUnits="userSpaceOnUse"><path
         id="path1427"
         d="M 0,595.28 H 841.89 V 0 H 0 Z" /></clipPath><clipPath
       id="clipPath1437"
       clipPathUnits="userSpaceOnUse"><path
         id="path1435"
         d="m 521.312,426.583 h 5.864 v -6.065 h -5.864 z" /></clipPath><clipPath
       id="clipPath1457"
       clipPathUnits="userSpaceOnUse"><path
         id="path1455"
         d="m 456.194,371.886 h 31.564 v -10.194 h -31.564 z" /></clipPath><clipPath
       id="clipPath1497"
       clipPathUnits="userSpaceOnUse"><path
         id="path1495"
         d="m 622.279,356.687 h 7.651 v -2.649 h -7.651 z" /></clipPath><clipPath
       id="clipPath1517"
       clipPathUnits="userSpaceOnUse"><path
         id="path1515"
         d="m 637.147,357.615 h 9.222 v -3.522 h -9.222 z" /></clipPath><linearGradient
       id="linearGradient1555"
       spreadMethod="pad"
       gradientTransform="matrix(0,38.289135,-38.289135,0,627.69513,374.75702)"
       gradientUnits="userSpaceOnUse"
       y2="0"
       x2="1"
       y1="0"
       x1="0"><stop
         id="stop1547"
         offset="0"
         style="stop-opacity:1;stop-color:#3dbcbf" /><stop
         id="stop1549"
         offset="0.00723453"
         style="stop-opacity:1;stop-color:#3dbcbf" /><stop
         id="stop1551"
         offset="0.999283"
         style="stop-opacity:1;stop-color:#00a8c0" /><stop
         id="stop1553"
         offset="1"
         style="stop-opacity:1;stop-color:#00a8c0" /></linearGradient><clipPath
       id="clipPath1565"
       clipPathUnits="userSpaceOnUse"><path
         id="path1563"
         d="M 0,595.28 H 841.89 V 0 H 0 Z" /></clipPath><clipPath
       id="clipPath1573"
       clipPathUnits="userSpaceOnUse"><path
         id="path1571"
         d="m 639.044,428.724 h 5.235 v -5.044 h -5.235 z" /></clipPath><clipPath
       id="clipPath1593"
       clipPathUnits="userSpaceOnUse"><path
         id="path1591"
         d="M 612.182,389.389 H 634.52 V 357.643 H 612.182 Z" /></clipPath><clipPath
       id="clipPath1629"
       clipPathUnits="userSpaceOnUse"><path
         id="path1627"
         d="m 156.041,177.642 h 6.194 v -2.8 h -6.194 z" /></clipPath><clipPath
       id="clipPath1649"
       clipPathUnits="userSpaceOnUse"><path
         id="path1647"
         d="m 144.294,176.399 h 3.82 v -4.648 h -3.82 z" /></clipPath><linearGradient
       id="linearGradient1687"
       spreadMethod="pad"
       gradientTransform="matrix(0,34.174141,34.174141,0,152.55678,199.82831)"
       gradientUnits="userSpaceOnUse"
       y2="0"
       x2="1"
       y1="0"
       x1="0"><stop
         id="stop1679"
         offset="0"
         style="stop-opacity:1;stop-color:#3dbcbf" /><stop
         id="stop1681"
         offset="0.00723453"
         style="stop-opacity:1;stop-color:#3dbcbf" /><stop
         id="stop1683"
         offset="0.999283"
         style="stop-opacity:1;stop-color:#00a8c0" /><stop
         id="stop1685"
         offset="1"
         style="stop-opacity:1;stop-color:#00a8c0" /></linearGradient><clipPath
       id="clipPath1697"
       clipPathUnits="userSpaceOnUse"><path
         id="path1695"
         d="M 0,595.28 H 841.89 V 0 H 0 Z" /></clipPath><clipPath
       id="clipPath1705"
       clipPathUnits="userSpaceOnUse"><path
         id="path1703"
         d="m 144.576,254.706 h 6.139 v -7.503 h -6.139 z" /></clipPath><clipPath
       id="clipPath1725"
       clipPathUnits="userSpaceOnUse"><path
         id="path1723"
         d="m 131.426,214.153 h 7.407 v -28.431 h -7.407 z" /></clipPath><clipPath
       id="clipPath1741"
       clipPathUnits="userSpaceOnUse"><path
         id="path1739"
         d="m 163.182,219.11 h 10.035 v -32.49 h -10.035 z" /></clipPath><clipPath
       id="clipPath1785"
       clipPathUnits="userSpaceOnUse"><path
         id="path1783"
         d="m 204.696,181.506 h 6.329 v -2.138 h -6.329 z" /></clipPath><clipPath
       id="clipPath1801"
       clipPathUnits="userSpaceOnUse"><path
         id="path1799"
         d="m 212.196,182.356 h 7.068 v -3.444 h -7.068 z" /></clipPath><linearGradient
       id="linearGradient1839"
       spreadMethod="pad"
       gradientTransform="matrix(-4.7312436,24.707607,24.707607,4.7312436,221.16701,219.65172)"
       gradientUnits="userSpaceOnUse"
       y2="0"
       x2="1"
       y1="0"
       x1="0"><stop
         id="stop1831"
         offset="0"
         style="stop-opacity:1;stop-color:#3dbcbf" /><stop
         id="stop1833"
         offset="0.00723453"
         style="stop-opacity:1;stop-color:#3dbcbf" /><stop
         id="stop1835"
         offset="0.999283"
         style="stop-opacity:1;stop-color:#00a8c0" /><stop
         id="stop1837"
         offset="1"
         style="stop-opacity:1;stop-color:#00a8c0" /></linearGradient><clipPath
       id="clipPath1849"
       clipPathUnits="userSpaceOnUse"><path
         id="path1847"
         d="M 0,595.28 H 841.89 V 0 H 0 Z" /></clipPath><clipPath
       id="clipPath1857"
       clipPathUnits="userSpaceOnUse"><path
         id="path1855"
         d="m 191.042,250.613 h 5.864 v -6.064 h -5.864 z" /></clipPath><clipPath
       id="clipPath1877"
       clipPathUnits="userSpaceOnUse"><path
         id="path1875"
         d="m 230.46,195.916 h 31.564 V 185.722 H 230.46 Z" /></clipPath><clipPath
       id="clipPath1937"
       clipPathUnits="userSpaceOnUse"><path
         id="path1935"
         d="m 286.937,176.624 h 7.651 v -2.649 h -7.651 z" /></clipPath><clipPath
       id="clipPath1957"
       clipPathUnits="userSpaceOnUse"><path
         id="path1955"
         d="m 270.498,177.552 h 9.222 v -3.522 h -9.222 z" /></clipPath><linearGradient
       id="linearGradient1995"
       spreadMethod="pad"
       gradientTransform="matrix(0,38.289135,38.289135,0,289.17197,194.69409)"
       gradientUnits="userSpaceOnUse"
       y2="0"
       x2="1"
       y1="0"
       x1="0"><stop
         id="stop1987"
         offset="0"
         style="stop-opacity:1;stop-color:#3dbcbf" /><stop
         id="stop1989"
         offset="0.00723453"
         style="stop-opacity:1;stop-color:#3dbcbf" /><stop
         id="stop1991"
         offset="0.999283"
         style="stop-opacity:1;stop-color:#00a8c0" /><stop
         id="stop1993"
         offset="1"
         style="stop-opacity:1;stop-color:#00a8c0" /></linearGradient><clipPath
       id="clipPath2005"
       clipPathUnits="userSpaceOnUse"><path
         id="path2003"
         d="M 0,595.28 H 841.89 V 0 H 0 Z" /></clipPath><clipPath
       id="clipPath2013"
       clipPathUnits="userSpaceOnUse"><path
         id="path2011"
         d="m 272.588,248.661 h 5.235 v -5.044 h -5.235 z" /></clipPath><clipPath
       id="clipPath2033"
       clipPathUnits="userSpaceOnUse"><path
         id="path2031"
         d="m 282.347,209.326 h 22.338 V 177.58 h -22.338 z" /></clipPath><clipPath
       id="clipPath2163"
       clipPathUnits="userSpaceOnUse"><path
         id="path2161"
         d="m 168.729,358.023 h 6.194 v -2.8 h -6.194 z" /></clipPath><clipPath
       id="clipPath2183"
       clipPathUnits="userSpaceOnUse"><path
         id="path2181"
         d="m 156.982,356.781 h 3.821 v -4.649 h -3.821 z" /></clipPath><linearGradient
       id="linearGradient2221"
       spreadMethod="pad"
       gradientTransform="matrix(0,34.174141,34.174141,0,165.24498,380.20935)"
       gradientUnits="userSpaceOnUse"
       y2="0"
       x2="1"
       y1="0"
       x1="0"><stop
         id="stop2213"
         offset="0"
         style="stop-opacity:1;stop-color:#3dbcbf" /><stop
         id="stop2215"
         offset="0.00723453"
         style="stop-opacity:1;stop-color:#3dbcbf" /><stop
         id="stop2217"
         offset="0.999283"
         style="stop-opacity:1;stop-color:#00a8c0" /><stop
         id="stop2219"
         offset="1"
         style="stop-opacity:1;stop-color:#00a8c0" /></linearGradient><clipPath
       id="clipPath2231"
       clipPathUnits="userSpaceOnUse"><path
         id="path2229"
         d="M 0,595.28 H 841.89 V 0 H 0 Z" /></clipPath><clipPath
       id="clipPath2239"
       clipPathUnits="userSpaceOnUse"><path
         id="path2237"
         d="m 157.264,435.087 h 6.139 v -7.503 h -6.139 z" /></clipPath><clipPath
       id="clipPath2259"
       clipPathUnits="userSpaceOnUse"><path
         id="path2257"
         d="m 144.115,394.535 h 7.406 v -28.432 h -7.406 z" /></clipPath><clipPath
       id="clipPath2275"
       clipPathUnits="userSpaceOnUse"><path
         id="path2273"
         d="m 175.871,399.491 h 10.034 v -32.49 h -10.034 z" /></clipPath><clipPath
       id="clipPath2315"
       clipPathUnits="userSpaceOnUse"><path
         id="path2313"
         d="m 251.518,361.088 h 7.651 v -2.649 h -7.651 z" /></clipPath><clipPath
       id="clipPath2335"
       clipPathUnits="userSpaceOnUse"><path
         id="path2333"
         d="m 235.08,362.016 h 9.222 v -3.522 h -9.222 z" /></clipPath><linearGradient
       id="linearGradient2373"
       spreadMethod="pad"
       gradientTransform="matrix(0,38.289135,38.289135,0,253.7533,379.15796)"
       gradientUnits="userSpaceOnUse"
       y2="0"
       x2="1"
       y1="0"
       x1="0"><stop
         id="stop2365"
         offset="0"
         style="stop-opacity:1;stop-color:#3dbcbf" /><stop
         id="stop2367"
         offset="0.00723453"
         style="stop-opacity:1;stop-color:#3dbcbf" /><stop
         id="stop2369"
         offset="0.999283"
         style="stop-opacity:1;stop-color:#00a8c0" /><stop
         id="stop2371"
         offset="1"
         style="stop-opacity:1;stop-color:#00a8c0" /></linearGradient><clipPath
       id="clipPath2383"
       clipPathUnits="userSpaceOnUse"><path
         id="path2381"
         d="M 0,595.28 H 841.89 V 0 H 0 Z" /></clipPath><clipPath
       id="clipPath2391"
       clipPathUnits="userSpaceOnUse"><path
         id="path2389"
         d="m 237.17,433.125 h 5.234 v -5.044 h -5.234 z" /></clipPath><clipPath
       id="clipPath2411"
       clipPathUnits="userSpaceOnUse"><path
         id="path2409"
         d="m 246.928,393.79 h 22.339 v -31.746 h -22.339 z" /></clipPath><clipPath
       id="clipPath2451"
       clipPathUnits="userSpaceOnUse"><path
         id="path2449"
         d="m 293.438,361.887 h 6.33 v -2.138 h -6.33 z" /></clipPath><clipPath
       id="clipPath2467"
       clipPathUnits="userSpaceOnUse"><path
         id="path2465"
         d="m 300.939,362.737 h 7.068 v -3.444 h -7.068 z" /></clipPath><linearGradient
       id="linearGradient2505"
       spreadMethod="pad"
       gradientTransform="matrix(-4.7312436,24.707607,24.707607,4.7312436,309.90979,400.03278)"
       gradientUnits="userSpaceOnUse"
       y2="0"
       x2="1"
       y1="0"
       x1="0"><stop
         id="stop2497"
         offset="0"
         style="stop-opacity:1;stop-color:#3dbcbf" /><stop
         id="stop2499"
         offset="0.00723453"
         style="stop-opacity:1;stop-color:#3dbcbf" /><stop
         id="stop2501"
         offset="0.999283"
         style="stop-opacity:1;stop-color:#00a8c0" /><stop
         id="stop2503"
         offset="1"
         style="stop-opacity:1;stop-color:#00a8c0" /></linearGradient><clipPath
       id="clipPath2515"
       clipPathUnits="userSpaceOnUse"><path
         id="path2513"
         d="M 0,595.28 H 841.89 V 0 H 0 Z" /></clipPath><clipPath
       id="clipPath2523"
       clipPathUnits="userSpaceOnUse"><path
         id="path2521"
         d="m 279.785,430.994 h 5.864 v -6.064 h -5.864 z" /></clipPath><clipPath
       id="clipPath2543"
       clipPathUnits="userSpaceOnUse"><path
         id="path2541"
         d="m 319.203,376.297 h 31.563 v -10.194 h -31.563 z" /></clipPath></defs><g
     transform="matrix(1.3333333,0,0,-1.3333333,-121.3036,351.45593)"
     id="g841"><g
       transform="translate(156.0407,176.2247)"
       id="g1619"><path
         id="path1621"
         style="fill:#ffffff;fill-opacity:1;fill-rule:nonzero;stroke:none"
         d="m 0,0 c 0,0 0.886,-0.068 2.665,-2.369 1.779,-2.302 1.424,-1.994 1.424,-1.994 0,0 1.22,2.809 1.483,4.095 0.263,1.287 0.622,1.685 0.622,1.685 0,0 -2.968,-0.769 -3.972,-1.122 C 1.218,-0.058 0,0 0,0" /></g><g
       id="g1623"><g
         id="g1625" /><g
         id="g1637"><g
           id="g1635"
           opacity="0.479996"
           clip-path="url(#clipPath1629)"><g
             id="g1633"
             transform="translate(157.8769,174.8435)"><path
               id="path1631"
               style="fill:#434343;fill-opacity:1;fill-rule:nonzero;stroke:none"
               d="M 0,0 C 1.14,0.024 2.279,-0.012 3.417,0.002 3.557,0.419 3.673,0.809 3.736,1.114 3.999,2.4 4.358,2.798 4.358,2.798 4.358,2.798 1.39,2.029 0.386,1.676 -0.618,1.323 -1.836,1.381 -1.836,1.381 -1.836,1.381 -1.225,1.332 0,0" /></g></g></g></g><g
       transform="translate(144.2936,176.3995)"
       id="g1639"><path
         id="path1641"
         style="fill:#ffffff;fill-opacity:1;fill-rule:nonzero;stroke:none"
         d="m 0,0 c 0,0 1.271,-1.566 1.689,-2.842 0.418,-1.277 0.8,-1.807 0.8,-1.807 0,0 0.296,2.863 1.211,3.66 C 4.616,-0.193 0,0 0,0" /></g><g
       id="g1643"><g
         id="g1645" /><g
         id="g1657"><g
           id="g1655"
           opacity="0.479996"
           clip-path="url(#clipPath1649)"><g
             id="g1653"
             transform="translate(144.2936,176.3995)"><path
               id="path1651"
               style="fill:#434343;fill-opacity:1;fill-rule:nonzero;stroke:none"
               d="m 0,0 c 0,0 1.271,-1.566 1.689,-2.842 0.418,-1.277 0.8,-1.807 0.8,-1.807 0,0 0.296,2.863 1.211,3.66 C 4.616,-0.193 0,0 0,0" /></g></g></g></g><g
       transform="translate(151.835,260.6031)"
       id="g1659"><path
         id="path1661"
         style="fill:#ffffff;fill-opacity:1;fill-rule:nonzero;stroke:none"
         d="m 0,0 c 0,0 -1.526,-0.754 -1.578,-3.441 -0.051,-2.687 1.166,-4.935 1.829,-5.523 0.662,-0.587 2.356,-0.17 2.156,1.595 -0.2,1.764 -1.043,5.406 -1.633,6.417 C 0.185,0.059 0,0 0,0" /></g><g
       transform="translate(140.9639,251.4535)"
       id="g1663"><path
         id="path1665"
         style="fill:#ffffff;fill-opacity:1;fill-rule:nonzero;stroke:none"
         d="M 0,0 C 0,0 0.452,-1.004 1.849,-1.632 3.681,-2.455 4.046,0.662 3.863,4.172 3.681,7.682 3.35,9.195 1.904,8.707 0.459,8.22 -0.084,4.846 0,3.253 0.084,1.659 0,0 0,0" /></g><g
       id="g1667"><g
         id="g1669"><g
           id="g1675"><g
             id="g1677"><path
               id="path1689"
               style="fill:url(#linearGradient1687);stroke:none"
               d="m 142.493,260.375 c 0.465,0.232 0.949,0.336 1.43,0.054 v 0 c 0.754,-0.442 0.913,-1.415 0.958,-2.213 v 0 c 0.059,-1.074 -0.076,-2.136 -0.061,-3.208 v 0 c 0.014,-1.042 0.2,-2.211 -0.097,-3.229 v 0 c -0.041,-0.139 -0.092,-0.266 -0.147,-0.386 v 0 c -0.018,-0.298 -0.071,-0.601 -0.149,-0.914 v 0 c -0.177,-0.724 -1,-0.968 -1.614,-0.657 v 0 c -0.219,0.111 -0.431,0.233 -0.642,0.359 v 0 c -0.475,0.081 -0.946,0.288 -1.349,0.609 v 0 c -0.201,-4.039 0.495,-4.038 0.349,-6.263 v 0 c -0.67,-10.224 -0.029,-11.853 -0.838,-23.298 v 0 c 0.53,-3.709 -2.973,-8.35 -5.618,-11.004 v 0 c -2.645,-2.653 -5.695,-5.252 -6.675,-8.869 v 0 c -0.499,-1.845 -0.402,-3.81 -0.011,-5.682 v 0 c 1.133,-5.415 4.589,-10.018 8.104,-14.29 v 0 c 1.166,-1.418 2.375,-2.844 3.918,-3.841 v 0 c 3.069,-1.985 6.966,-1.997 10.621,-1.943 v 0 c 3.953,0.058 8.084,0.161 11.563,2.042 v 0 c 1.948,1.053 3.575,2.608 5.103,4.212 v 0 c 4.703,4.933 8.848,10.784 9.937,17.512 v 0 c 0.157,0.972 0.245,1.996 -0.098,2.92 v 0 c -0.353,0.951 -1.119,1.68 -1.859,2.376 v 0 c -4.605,4.33 -9.228,8.835 -12.135,14.448 v 0 c -1.692,3.267 -2.752,6.819 -3.801,10.345 v 0 c -2.24,7.525 -4.488,15.111 -5.301,22.913 v 0 c -0.042,-0.042 -0.087,-0.08 -0.137,-0.114 v 0 c -0.269,-0.494 -0.859,-0.808 -1.48,-0.431 v 0 c -1.657,1.003 -2.171,2.952 -2.042,4.847 v 0 c -0.056,1.526 0.389,3.04 1.413,3.933 v 0 c -1.058,1.192 -2.525,2.02 -4.107,2.181 v 0 c -0.182,0.018 -0.365,0.027 -0.547,0.027 v 0 c -1.836,0.001 -3.672,-0.92 -4.688,-2.436" /></g></g></g></g><g
       id="g1691"><g
         clip-path="url(#clipPath1697)"
         id="g1693"><g
           id="g1699"><g
             id="g1701" /><g
             id="g1713"><g
               id="g1711"
               opacity="0.479996"
               clip-path="url(#clipPath1705)"><g
                 id="g1709"
                 transform="translate(150.7149,254.0837)"><path
                   id="path1707"
                   style="fill:#434343;fill-opacity:1;fill-rule:nonzero;stroke:none"
                   d="m 0,0 c 0,0 -1.287,-5.456 -1.612,-6.378 -0.324,-0.921 -0.774,-0.479 -1.342,0.541 -0.568,1.02 -0.793,2.277 -1.827,3.508 -1.034,1.231 -1.358,2.614 -1.358,2.614 l 6,0.337 z" /></g></g></g></g><g
           transform="translate(145.2459,254.4892)"
           id="g1715"><path
             id="path1717"
             style="fill:#e22715;fill-opacity:1;fill-rule:nonzero;stroke:none"
             d="m 0,0 4.564,0.217 c -0.699,-1.434 -2,-3.644 -2.284,-5.214 -1.162,1.29 -1.397,3.373 -2.284,4.865" /></g><g
           id="g1719"><g
             id="g1721" /><g
             id="g1733"><g
               id="g1731"
               opacity="0.479996"
               clip-path="url(#clipPath1725)"><g
                 id="g1729"
                 transform="translate(138.5233,214.1535)"><path
                   id="path1727"
                   style="fill:#434343;fill-opacity:1;fill-rule:nonzero;stroke:none"
                   d="m 0,0 c 0,0 -1.516,-14.678 -2.891,-18.925 -1.376,-4.247 -4.206,-6.965 -4.206,-6.965 l 1.56,-2.541 c 0,0 4.116,2.95 5.233,12.945 C 0.869,-4.992 0,0 0,0" /></g></g></g></g><g
           id="g1735"><g
             id="g1737" /><g
             id="g1749"><g
               id="g1747"
               opacity="0.479996"
               clip-path="url(#clipPath1741)"><g
                 id="g1745"
                 transform="translate(163.1825,219.1104)"><path
                   id="path1743"
                   style="fill:#434343;fill-opacity:1;fill-rule:nonzero;stroke:none"
                   d="m 0,0 c 0,0 4.452,-16.324 5.634,-21.056 1.182,-4.733 4.401,-8.835 4.401,-8.835 L 8.394,-32.49 c 0,0 -2.603,4.272 -4.074,11.894 C 2.551,-11.43 0,0 0,0" /></g></g></g></g><g
           transform="translate(150.0763,227.73)"
           id="g1751"><path
             id="path1753"
             style="fill:#434343;fill-opacity:1;fill-rule:nonzero;stroke:none"
             d="m 0,0 c 2.635,-12.536 4.175,-25.266 4.608,-38.068 0.02,-0.59 0.936,-0.591 0.916,0 C 5.088,-25.185 3.535,-12.371 0.883,0.244 0.762,0.822 -0.121,0.576 0,0" /></g><g
           transform="translate(150.1463,183.7587)"
           id="g1755"><path
             id="path1757"
             style="fill:#434343;fill-opacity:1;fill-rule:nonzero;stroke:none"
             d="m 0,0 c -1.78,-0.24 -3.54,-0.128 -5.282,0.308 -0.574,0.144 -0.817,-0.74 -0.244,-0.883 1.91,-0.478 3.82,-0.571 5.77,-0.308 C 0.827,-0.805 0.577,0.078 0,0" /></g><g
           transform="translate(160.3101,172.7081)"
           id="g1759"><path
             id="path1761"
             style="fill:#434343;fill-opacity:1;fill-rule:nonzero;stroke:none"
             d="M 0,0 C -0.357,1.38 -1.27,2.531 -2.548,3.212 -1.307,3.418 -0.162,3.774 0.906,4.25 0.604,2.833 0.302,1.417 0,0 m -10.814,3.609 c -2.212,-0.017 -4.406,0.111 -6.547,0.701 -2.35,0.648 -4.093,2.233 -5.655,4.02 -1.759,2.013 -3.752,4.44 -5.422,7.08 3.319,3.038 4.687,7.327 5.396,11.68 0.8,4.905 1.182,9.903 1.742,14.841 0.008,0.075 0,0.14 -0.02,0.195 1.298,1.953 2.1,4.112 1.852,6.667 0.292,4.233 0.442,8.461 0.475,12.702 0.029,3.839 0.004,14.044 -0.023,15.308 -0.004,0.19 0.003,0.382 0.003,0.573 0.435,-0.563 1.01,-0.954 1.892,-1.071 1.532,-0.203 1.79,1.73 1.923,2.758 0.038,0.301 0.091,0.854 0.129,1.538 0.61,-1.41 0.949,-2.929 1.961,-4.141 0.217,-0.259 0.698,-0.119 0.766,0.202 0.379,1.808 1.4,3.422 2.214,5.059 0.561,-1.859 1.956,-3.703 3.105,-3.371 0.15,0.043 0.323,0.082 0.396,0.227 0.041,0.081 0.083,0.162 0.124,0.244 0.026,-0.273 0.054,-0.542 0.09,-0.803 C -6,75.006 -5.411,72.032 -4.709,69.076 -3.39,63.514 -1.757,57.981 0.025,52.55 0.712,50.456 1.559,48.473 2.552,46.573 4.039,40.977 5.616,34.548 7.088,29.093 8.235,24.842 9.107,19.926 12.324,16.665 12.005,16.174 11.679,15.689 11.344,15.213 8.916,11.774 5.848,8.169 2.267,5.901 -1.538,3.49 -6.483,3.644 -10.814,3.609 M -13.91,1.077 c -0.199,0.642 -0.512,1.231 -0.966,1.786 0.79,-0.094 1.588,-0.14 2.385,-0.158 -0.624,-0.39 -1.123,-0.961 -1.419,-1.628 m -16.568,18.082 c 0.007,0.012 0.017,0.02 0.023,0.033 2.439,5.881 4.637,13.022 6.074,19.281 0.715,0.736 1.404,1.486 2.033,2.263 -0.471,-4.248 -0.897,-8.507 -1.478,-12.74 -0.596,-4.342 -1.866,-8.712 -5.105,-11.786 -0.573,0.961 -1.096,1.947 -1.547,2.949 m -1.233,3.587 c 0.009,0.016 0.022,0.027 0.029,0.045 1.727,4.295 3.785,9.695 5.731,14.102 0.107,0.107 0.215,0.214 0.323,0.322 -1.342,-5.757 -3.126,-11.386 -5.343,-16.864 -0.303,0.792 -0.553,1.592 -0.74,2.395 m 1.261,8.952 c 0.851,1.384 2.015,2.678 3.268,3.959 -1.675,-3.719 -3.282,-7.468 -4.821,-11.246 -0.284,2.471 0.111,4.943 1.553,7.287 m 11.841,51.686 c 0.128,1.125 0.331,2.214 0.726,3.181 0.026,0.013 0.051,0.018 0.077,0.037 1.931,1.488 1.838,-3.967 1.849,-4.812 0.008,-0.683 -0.04,-1.366 -0.089,-2.047 -0.046,-0.583 -0.124,-1.162 -0.233,-1.737 -0.372,-1.529 -2.439,-0.073 -2.67,1.183 -0.005,0.012 -0.014,0.018 -0.019,0.029 0.07,1.397 0.202,2.798 0.359,4.166 m 7.343,-1.88 c -0.62,-1.188 -1.282,-2.382 -1.698,-3.652 -0.624,1.087 -0.921,2.357 -1.446,3.502 1.048,0.05 2.096,0.1 3.144,0.15 m -3.661,8.079 c 2.169,0.896 4.391,0.031 5.917,-1.525 -1.327,-0.721 -1.348,-3.563 -1.37,-4.738 -0.006,-0.288 0.025,-0.594 0.082,-0.907 -0.059,0.028 -0.125,0.047 -0.202,0.043 -1.506,-0.071 -3.013,-0.143 -4.519,-0.215 0.012,2.695 -0.348,5.952 -2.068,5.722 0.522,0.672 1.216,1.231 2.16,1.62 m 6.571,-2.29 c 0.186,0.036 0.771,-1.323 0.843,-1.494 0.225,-0.539 0.365,-1.091 0.494,-1.657 0.296,-1.309 0.818,-3.417 -0.159,-4.526 -0.12,-0.137 -0.265,-0.272 -0.455,-0.292 -0.389,-0.041 -0.679,0.36 -0.864,0.644 -0.493,0.76 -0.856,1.785 -0.942,2.689 -0.076,0.795 -0.145,4.399 1.083,4.636 M 4.842,42.738 C 4.847,42.72 4.844,42.705 4.851,42.686 7.766,35.492 11.07,28.44 15.071,21.781 14.448,20.286 13.683,18.847 12.831,17.465 9.707,20.773 8.92,25.819 7.781,30.042 6.525,34.697 5.27,39.351 4.014,44.006 4.281,43.579 4.557,43.156 4.842,42.738 m 7.596,-8.652 c 0.904,-0.879 1.828,-1.737 2.74,-2.607 1.725,-1.645 1.609,-3.455 1.174,-5.596 -3.215,3.933 -5.975,8.181 -8.266,12.703 1.381,-1.565 2.857,-3.047 4.352,-4.5 m 3.057,-11.214 c -2.043,3.45 -3.905,7.002 -5.624,10.624 1.8,-2.974 3.811,-5.818 6.035,-8.514 0.06,-0.073 0.128,-0.109 0.196,-0.131 -0.173,-0.669 -0.372,-1.33 -0.607,-1.979 M 1.918,4.752 c 2.725,1.466 4.963,3.702 7.117,6.121 3.126,3.51 5.764,7.462 7.382,11.891 0.738,2.019 1.379,4.359 1.115,6.521 -0.258,2.118 -2.576,3.658 -3.989,5.008 -3.934,3.761 -7.654,7.775 -10.225,12.613 -2.668,5.021 -3.983,10.865 -5.53,16.302 -1.653,5.807 -3.044,11.696 -3.609,17.718 -0.244,2.599 -0.63,5.157 -1.976,7.068 -0.02,0.034 -0.044,0.064 -0.072,0.092 -0.8,1.098 -1.925,1.977 -3.542,2.511 -3.51,1.161 -6.767,-1.366 -7.663,-4.634 -1.075,-3.923 -0.774,-8.181 -0.809,-12.217 -0.031,-3.54 -0.056,-7.08 -0.088,-10.62 -0.027,-2.96 -0.048,-5.921 -0.119,-8.881 -0.013,-0.503 -0.025,-1.007 -0.05,-1.51 -0.067,-1.315 -0.154,-2.628 -0.245,-3.942 0.478,-4.908 -3.906,-9.131 -7.1,-12.274 -3.277,-3.225 -5.779,-6.583 -5.486,-11.386 0.293,-4.806 2.99,-9.247 5.766,-13.019 2.729,-3.707 5.553,-7.572 10.179,-8.847 0.194,-0.053 0.391,-0.096 0.588,-0.14 1.179,-1.137 2.112,-3.166 2.243,-4.777 -0.61,0.036 -1.216,0.031 -1.786,-0.048 -1.091,0.088 -2.174,0.083 -3.178,-0.105 -0.675,0.003 -1.35,0.005 -2.025,0.007 -0.77,0.002 -1.69,0.13 -2.444,-0.069 -1.144,-0.302 -1.852,-0.95 -2.19,-2.094 -0.168,-0.568 0.716,-0.809 0.883,-0.243 0.374,1.267 1.992,1.592 3.699,1.626 -0.814,-0.503 -1.504,-1.242 -1.999,-2.317 -0.245,-0.533 0.545,-0.999 0.791,-0.462 0.794,1.725 2.125,2.45 3.659,2.696 0.204,-0.013 0.395,-0.025 0.579,-0.035 -0.765,-0.746 -1.053,-1.788 -1.258,-2.944 -0.102,-0.578 0.781,-0.825 0.884,-0.244 0.332,1.878 1.086,3.142 3.066,3.225 0.015,-10e-4 0.029,-0.002 0.044,-0.004 0.024,-0.002 0.04,0.006 0.062,0.006 0.068,0.002 0.133,0.006 0.204,0.004 1.384,-0.025 2.762,-0.123 4.14,-0.259 0.588,-0.059 0.582,0.858 0,0.916 -0.542,0.053 -1.153,0.141 -1.791,0.218 -0.35,1.479 0.117,3.865 2.258,4.471 0.132,0.001 0.265,0.002 0.397,0.003 2.032,0.016 4.06,0.07 6.079,0.296 2.074,-0.797 3.337,-2.519 3.38,-4.15 -0.686,-0.08 -1.345,-0.177 -1.924,-0.234 -0.582,-0.058 -0.588,-0.975 0,-0.916 1.378,0.136 2.756,0.234 4.14,0.259 0.071,0.002 0.136,-0.002 0.204,-0.004 0.021,0 0.038,-0.008 0.062,-0.006 0.015,0.002 0.029,0.003 0.044,0.004 1.98,-0.083 2.734,-1.347 3.066,-3.225 0.103,-0.581 0.986,-0.334 0.884,0.244 -0.205,1.156 -0.493,2.198 -1.258,2.944 0.184,0.01 0.375,0.022 0.579,0.035 1.534,-0.246 2.864,-0.971 3.658,-2.696 0.247,-0.537 1.037,-0.071 0.792,0.462 -0.495,1.075 -1.185,1.814 -1.999,2.317 1.707,-0.034 3.324,-0.359 3.699,-1.626 0.167,-0.566 1.051,-0.325 0.883,0.243 -0.338,1.144 -1.046,1.792 -2.19,2.094 -0.754,0.199 -1.674,0.071 -2.444,0.069 -0.675,-0.002 -1.35,-0.004 -2.026,-0.006 -1.003,0.187 -2.086,0.192 -3.178,0.104 -0.491,0.068 -1.01,0.08 -1.536,0.059 0.4,1.879 0.801,3.758 1.201,5.637 0.012,0.054 0.007,0.102 0.002,0.15" /></g><g
           transform="translate(143.2721,252.9228)"
           id="g1763"><path
             id="path1765"
             style="fill:#434343;fill-opacity:1;fill-rule:nonzero;stroke:none"
             d="M 0,0 C 0.272,0.292 0.412,0.977 0.458,1.206 0.6,1.906 0.716,2.978 0.077,3.471 -0.492,3.91 -0.748,3.274 -0.852,2.793 -1.025,1.996 -1.002,1.164 -0.753,0.386 -0.697,0.213 -0.622,0.031 -0.468,-0.067 -0.281,-0.186 -0.126,-0.135 0,0" /></g><g
           transform="translate(152.4528,253.9775)"
           id="g1767"><path
             id="path1769"
             style="fill:#434343;fill-opacity:1;fill-rule:nonzero;stroke:none"
             d="M 0,0 C 0.109,0.144 0.204,0.351 0.269,0.529 0.482,1.114 0.549,1.77 0.449,2.393 0.386,2.788 0.056,3.738 -0.421,3.513 -0.794,3.338 -0.866,2.446 -0.882,2.065 -0.908,1.418 -0.8,0.763 -0.57,0.171 -0.387,-0.301 -0.175,-0.232 0,0" /></g><g
           transform="translate(204.4795,181.6628)"
           id="g1771"><path
             id="path1773"
             style="fill:#ffffff;fill-opacity:1;fill-rule:nonzero;stroke:none"
             d="m 0,0 c 0,0 1.854,-1.868 2.858,-3.792 1.004,-1.924 1.38,-3.513 1.38,-3.513 0,0 0.92,4.625 1.464,5.637 0.544,1.013 0.627,1.328 0.627,1.328 0,0 -2.385,-0.062 -3.744,0 C 1.227,-0.279 0,0 0,0" /></g><g
           transform="translate(211.98,181.3224)"
           id="g1775"><path
             id="path1777"
             style="fill:#ffffff;fill-opacity:1;fill-rule:nonzero;stroke:none"
             d="m 0,0 c 0,0 1.548,-1.319 2.593,-3.577 1.046,-2.259 1.464,-4.015 1.464,-4.015 0,0 0.92,4.415 1.798,6.265 0.879,1.849 1.213,2.518 1.213,2.518 0,0 -3.019,-0.544 -4.709,-0.837 C 0.669,0.062 0,0 0,0" /></g><g
           id="g1779"><g
             id="g1781" /><g
             id="g1793"><g
               id="g1791"
               opacity="0.479996"
               clip-path="url(#clipPath1785)"><g
                 id="g1789"
                 transform="translate(210.3332,179.6982)"><path
                   id="path1787"
                   style="fill:#434343;fill-opacity:1;fill-rule:nonzero;stroke:none"
                   d="m 0,0 c 0.022,0.048 0.044,0.101 0.064,0.14 0.544,1.013 0.628,1.327 0.628,1.327 0,0 -2.386,-0.061 -3.744,0 -1.359,0.062 -2.586,0.341 -2.586,0.341 0,0 0.915,-0.923 1.807,-2.138 C -2.563,-0.169 -1.285,-0.171 0,0" /></g></g></g></g><g
           id="g1795"><g
             id="g1797" /><g
             id="g1809"><g
               id="g1807"
               opacity="0.479996"
               clip-path="url(#clipPath1801)"><g
                 id="g1805"
                 transform="translate(214.0279,178.9669)"><path
                   id="path1803"
                   style="fill:#434343;fill-opacity:1;fill-rule:nonzero;stroke:none"
                   d="m 0,0 c 1.121,0.107 2.291,0.068 3.444,-0.055 0.07,0.008 0.142,0.012 0.213,0.019 0.121,0.339 0.244,0.649 0.367,0.907 0.878,1.849 1.213,2.519 1.213,2.519 0,0 -3.02,-0.544 -4.71,-0.837 C -1.163,2.26 -1.832,2.199 -1.832,2.199 -1.832,2.199 -0.904,1.405 0,0" /></g></g></g></g><g
           transform="translate(199.0975,249.805)"
           id="g1811"><path
             id="path1813"
             style="fill:#ffffff;fill-opacity:1;fill-rule:nonzero;stroke:none"
             d="M 0,0 C 1.464,0.292 2.301,1.145 2.343,2.707 2.385,4.27 1.907,6.769 1.171,7.717 0.435,8.665 -2.258,8.78 -3.053,7.717 -3.847,6.654 -4.655,4.093 -3.879,2.814 -3.103,1.535 -2.396,0.734 -1.281,0.202 -0.167,-0.331 0,0 0,0" /></g><g
           transform="translate(187.8662,249.6762)"
           id="g1815"><path
             id="path1817"
             style="fill:#ffffff;fill-opacity:1;fill-rule:nonzero;stroke:none"
             d="m 0,0 c -1.456,0.604 -2.194,2.522 -1.943,4.192 0.251,1.67 0.505,2.795 1.646,2.843 C 0.844,7.082 1.715,5.685 2.102,4.053 2.488,2.421 2.042,0.514 1.576,0.009 1.11,-0.495 0,0 0,0" /></g></g></g><g
       id="g1819"><g
         id="g1821"><g
           id="g1827"><g
             id="g1829"><path
               id="path1841"
               style="fill:url(#linearGradient1839);stroke:none"
               d="m 188.496,259.201 c -0.486,-0.725 -0.773,-1.585 -0.926,-2.49 v 0 c 0.021,-0.008 0.042,-0.013 0.065,-0.022 v 0 c 2.073,-0.872 2.767,-3.639 2.179,-5.763 v 0 c 0.046,-0.438 0,-0.95 -0.372,-1.24 v 0 c -0.357,-0.279 -0.693,-0.403 -1.146,-0.414 v 0 c 0.033,-0.502 0.214,-3.492 0.576,-12.251 v 0 c 0.402,-9.71 -0.048,-25.587 -2.223,-29.277 v 0 c -3.827,-6.489 -1.469,-15.893 4.55,-20.224 v 0 c 6.019,-4.33 10.653,-5.398 16.79,-6.198 v 0 c 0,0 7.345,0.446 12.28,1.41 v 0 c 4.933,0.964 9.038,2.781 15.802,3.922 v 0 c 6.764,1.14 23.579,5.719 26.844,6.793 v 0 c 3.265,1.074 3.242,1.321 3.251,1.75 v 0 c 0.01,0.429 -1.418,0.194 -3.938,0.386 v 0 c -2.519,0.191 -6.449,0.108 -6.449,0.108 v 0 c 0,0 2.958,1.539 3.787,2.088 v 0 c 0.829,0.549 -0.972,0.357 -3.117,0.251 v 0 c -2.147,-0.106 -5.688,0.095 -10.25,3.665 v 0 c -4.562,3.57 -12.789,9.18 -19.364,13.91 v 0 c -6.575,4.729 -15.724,10.793 -17.815,15.43 v 0 c -2.091,4.636 -5.27,11.006 -6.535,15.686 v 0 c -0.49,1.813 -1.139,2.923 -1.51,4.336 v 0 c -0.237,-0.681 -0.495,-0.733 -1.296,-0.996 v 0 c -0.971,-0.321 -2.059,-0.257 -2.773,0.552 v 0 c -0.278,0.317 -0.472,0.698 -0.597,1.112 v 0 c -0.226,0.062 -0.433,0.215 -0.577,0.492 v 0 c -0.564,1.087 -0.699,2.44 -0.219,3.592 v 0 c 0.379,0.906 0.999,1.952 2.037,2.207 v 0 c 0.525,0.128 0.995,0.055 1.407,-0.144 v 0 c -0.81,1.302 -1.771,2.151 -2.879,2.917 v 0 c -0.639,0.443 -1.798,0.863 -3.088,0.863 v 0 c -1.533,0 -3.25,-0.594 -4.494,-2.451 m 4.518,-11.65 c -1.128,0.381 -2.03,1.133 -2.635,2.157 v 0 c -0.099,0.166 -0.142,0.364 -0.137,0.56 v 0 c -0.323,0.457 -0.345,1.157 0.263,1.548 v 0 c 0.896,0.575 1.929,0.978 3.009,0.923 v 0 c 0.818,-0.042 1.887,-0.406 2.123,-1.295 v 0 c 0.183,-0.69 -0.115,-1.329 -0.521,-1.874 v 0 c -0.311,-0.419 -0.736,-0.914 -0.809,-1.284 v 0 c -0.087,-0.448 -0.566,-0.778 -1.02,-0.778 v 0 c -0.093,0 -0.186,0.014 -0.273,0.043" /></g></g></g></g><g
       id="g1843"><g
         clip-path="url(#clipPath1849)"
         id="g1845"><g
           id="g1851"><g
             id="g1853" /><g
             id="g1865"><g
               id="g1863"
               opacity="0.479996"
               clip-path="url(#clipPath1857)"><g
                 id="g1861"
                 transform="translate(191.0423,248.9879)"><path
                   id="path1859"
                   style="fill:#434343;fill-opacity:1;fill-rule:nonzero;stroke:none"
                   d="M 0,0 C 0,0 2.743,-3.687 3.791,-4.388 4.84,-5.089 5.864,1.625 5.864,1.625 L 0.547,1.28 Z" /></g></g></g></g><g
           transform="translate(193.2744,247.1867)"
           id="g1867"><path
             id="path1869"
             style="fill:#e22715;fill-opacity:1;fill-rule:nonzero;stroke:none"
             d="m 0,0 c -1.501,0.891 -1.86,1.246 -2.575,2.047 -0.715,0.8 -0.452,2.529 0.381,2.912 0.833,0.383 1.927,0.969 2.992,0.516 C 1.864,5.023 3.958,4.765 2.334,2.532 0.71,0.299 0,0 0,0" /></g><g
           id="g1871"><g
             id="g1873" /><g
             id="g1885"><g
               id="g1883"
               opacity="0.479996"
               clip-path="url(#clipPath1877)"><g
                 id="g1881"
                 transform="translate(230.4603,186.3349)"><path
                   id="path1879"
                   style="fill:#434343;fill-opacity:1;fill-rule:nonzero;stroke:none"
                   d="m 0,0 c 0,0 13.218,4.966 19.411,7.623 6.194,2.657 5.505,1.84 5.505,1.84 l 6.647,-0.652 c 0,0 -8.662,-3.378 -13.919,-4.868 C 12.387,2.454 7.077,0.588 7.077,0.588 l -6.08,-1.201 z" /></g></g></g></g><g
           transform="translate(233.459,186.4492)"
           id="g1887"><path
             id="path1889"
             style="fill:#434343;fill-opacity:1;fill-rule:nonzero;stroke:none"
             d="M 0,0 C 7.23,2.628 14.367,5.631 21.363,8.647 25.319,8.933 28.543,8.754 32.155,8.43 21.372,4.714 11.96,1.944 0,0 m -17.497,-11.049 c -0.557,2.039 -1.603,3.979 -3.055,5.634 1.828,0.175 3.639,0.462 5.411,0.828 -0.937,-1.849 -1.839,-4.253 -2.356,-6.462 m -4.603,6.417 c -0.1,-0.006 -0.207,-0.01 -0.309,-0.015 -0.08,0.017 -0.159,0.014 -0.235,-0.011 -4.514,-0.205 -10.847,0.328 -16.427,3.785 -5.263,3.263 -8.717,8.71 -9.012,14.217 -0.166,3.093 0.659,6.245 2.285,9.162 0.001,0.002 0.002,0.004 0.004,0.007 1.984,3.558 5.161,6.764 9.196,9.08 0.216,0.124 0.291,0.4 0.167,0.617 -0.124,0.216 -0.4,0.291 -0.617,0.167 -2.453,-1.408 -4.599,-3.138 -6.373,-5.074 2.209,4.936 3.573,10.712 4.644,19.366 0.03,0.248 -0.146,0.473 -0.393,0.504 -0.25,0.024 -0.474,-0.145 -0.504,-0.393 -1.242,-10.047 -2.877,-16.154 -5.783,-21.574 1.351,12.53 1.567,24.715 0.668,37.147 0.118,-0.011 0.236,-0.014 0.353,0.002 0.182,0.025 0.361,0.084 0.534,0.184 0.188,0.108 0.324,0.269 0.437,0.451 0.686,-1.09 1.523,-2.145 3.017,-2.678 0.121,-0.043 0.263,-0.089 0.426,-0.089 0.069,0 0.136,0.009 0.201,0.025 0.364,0.093 0.543,0.414 0.629,0.568 0.186,0.334 0.503,0.74 0.839,1.17 0.451,0.578 0.917,1.175 1.152,1.714 0.033,0.076 0.071,0.168 0.107,0.267 0.272,-0.252 0.568,-0.473 0.884,-0.654 0.564,-0.324 1.151,-0.495 1.696,-0.495 0.134,0 0.269,0.01 0.402,0.031 0.464,0.074 0.905,0.294 1.287,0.615 l 4.822,-12.281 c 1.283,-3.266 2.609,-6.644 4.826,-9.498 2.223,-2.86 5.172,-4.981 8.024,-7.032 L 10.725,16.04 c 0.335,-0.241 0.673,-0.482 1.013,-0.723 -0.032,0.015 -0.067,0.03 -0.099,0.045 -0.392,0.179 -0.763,0.349 -1.101,0.496 -6.579,2.867 -13.079,6.11 -19.319,9.641 -0.217,0.123 -0.493,0.046 -0.616,-0.17 -0.123,-0.218 -0.046,-0.493 0.171,-0.616 6.268,-3.546 12.796,-6.804 19.403,-9.683 0.333,-0.145 0.7,-0.313 1.086,-0.49 1.446,-0.662 3.08,-1.408 4.424,-1.67 0.191,-0.095 0.383,-0.189 0.578,-0.277 2.737,-1.236 5.813,-1.704 8.794,-1.357 C 25.035,11.222 25.011,11.208 24.988,11.195 15.335,7.018 5.354,2.698 -4.773,-0.723 -9.884,-2.45 -15.94,-4.265 -22.1,-4.632 m -2.746,-5.949 c -0.58,1.858 -1.566,3.622 -2.896,5.145 1.201,-0.117 2.358,-0.165 3.44,-0.165 0.352,0 0.692,0.006 1.027,0.015 -0.712,-1.455 -1.255,-3.2 -1.571,-4.995 M -46.612,65.12 c -0.429,1.11 -1.091,4.256 0.658,4.618 1.44,0.298 1.933,-2.361 2.029,-3.284 0.077,-0.744 0.303,-2.434 -0.374,-2.971 -0.967,-0.767 -1.913,0.742 -2.243,1.47 -0.023,0.05 -0.046,0.106 -0.07,0.167 m 6.102,9.637 c 1.664,-0.023 3.631,-1.034 4.851,-2.47 -0.931,-0.128 -1.845,-0.649 -2.423,-1.45 -0.731,-1.014 -0.985,-2.406 -0.697,-3.821 0.049,-0.242 0.118,-0.478 0.196,-0.709 -0.775,0.309 -1.574,0.45 -2.342,0.38 -0.819,-0.075 -1.59,-0.392 -2.183,-0.882 -0.007,0.197 -0.015,0.393 -0.013,0.577 0.022,1.474 -0.433,2.762 -1.282,3.628 -0.369,0.376 -0.781,0.608 -1.195,0.678 0.901,2.627 2.727,4.111 5.088,4.069 m -1.609,-11.195 c 1.333,0.226 2.707,0.461 4.062,0.446 -0.199,-0.426 -0.608,-0.953 -1.008,-1.466 -0.358,-0.458 -0.696,-0.891 -0.916,-1.286 -0.038,-0.069 -0.064,-0.107 -0.07,-0.124 -0.032,0.009 -0.075,0.024 -0.094,0.031 -1.129,0.403 -1.82,1.154 -2.54,2.288 0.185,0.044 0.377,0.078 0.566,0.111 m 4.111,1.347 c -1.449,0.02 -2.876,-0.221 -4.262,-0.456 -0.261,-0.045 -0.539,-0.095 -0.817,-0.174 -0.003,0.218 0.162,0.444 0.302,0.597 0.469,0.509 1.177,0.842 1.942,0.911 0.108,0.01 0.216,0.015 0.324,0.015 0.614,0 1.269,-0.156 1.893,-0.45 0.153,-0.071 0.446,-0.231 0.618,-0.443 m 5.512,2.784 c 0.082,-0.723 0.137,-1.66 -0.174,-2.49 -0.293,-0.781 -0.914,-1.355 -1.584,-1.462 -0.086,-0.013 -0.173,-0.02 -0.26,-0.02 -0.388,0 -0.819,0.13 -1.247,0.376 -1.065,0.61 -1.863,1.769 -2.133,3.099 -0.237,1.168 -0.039,2.303 0.545,3.112 0.49,0.68 1.316,1.12 2.104,1.12 0.198,0 0.392,-0.027 0.575,-0.082 1.645,-0.492 2.069,-2.718 2.174,-3.653 M 32.249,9.294 c -2.898,0.287 -5.553,0.457 -8.523,0.374 0.553,0.239 1.108,0.478 1.658,0.717 0.591,0.324 1.315,0.811 1.411,1.288 0.127,0.631 -0.418,0.687 -0.868,0.605 -0.457,-0.084 -0.919,-0.145 -1.383,-0.187 -0.897,-0.081 -1.801,-0.084 -2.698,-0.011 -1.795,0.145 -3.567,0.594 -5.209,1.336 -1.926,0.87 -3.684,2.135 -5.385,3.357 l -25.878,18.614 c -2.8,2.013 -5.695,4.096 -7.837,6.852 -2.138,2.752 -3.44,6.068 -4.699,9.275 l -4.994,12.718 c 0.13,0.203 0.244,0.42 0.332,0.654 0.378,1.01 0.319,2.085 0.226,2.909 -0.126,1.112 -0.652,3.77 -2.813,4.416 -0.034,0.01 -0.07,0.012 -0.104,0.021 -0.033,0.03 -0.071,0.055 -0.113,0.074 -0.006,0.016 -0.011,0.033 -0.018,0.049 -0.041,0.109 -0.091,0.243 -0.191,0.368 -1.389,1.73 -3.664,2.91 -5.661,2.937 -0.028,0 -0.057,0.001 -0.085,0.001 -2.838,0 -5.078,-1.923 -6.02,-5.162 -0.401,-0.243 -0.81,-0.74 -1.039,-1.751 -0.367,-1.612 -0.133,-2.755 0.288,-3.835 0.264,-0.674 0.792,-1.762 1.637,-2.246 0.988,-13.316 0.688,-26.342 -0.916,-39.81 -1.676,-3.04 -2.526,-6.328 -2.353,-9.561 0.312,-5.798 3.929,-11.521 9.44,-14.936 3.406,-2.112 7.074,-3.167 10.465,-3.637 0.022,-0.053 0.054,-0.104 0.097,-0.148 2.278,-2.312 3.642,-5.328 3.813,-8.375 -0.738,0.061 -1.482,0.074 -2.172,-0.021 -1.092,0.088 -2.175,0.084 -3.178,-0.104 -0.675,0.002 -1.351,0.004 -2.026,0.006 -0.77,0.002 -1.69,0.13 -2.443,-0.069 -1.145,-0.302 -1.853,-0.95 -2.191,-2.094 -0.168,-0.568 0.716,-0.809 0.883,-0.243 0.375,1.267 1.992,1.592 3.699,1.626 -0.813,-0.503 -1.504,-1.242 -1.998,-2.317 -0.246,-0.533 0.544,-0.999 0.791,-0.462 0.794,1.725 2.124,2.45 3.658,2.696 0.204,-0.013 0.395,-0.025 0.579,-0.035 -0.765,-0.746 -1.053,-1.788 -1.258,-2.944 -0.102,-0.578 0.781,-0.825 0.884,-0.243 0.332,1.877 1.086,3.141 3.066,3.224 0.015,-0.001 0.03,-0.002 0.044,-0.004 0.024,-0.002 0.041,0.006 0.063,0.007 0.067,10e-4 0.132,0.005 0.203,0.004 1.384,-0.026 2.763,-0.124 4.14,-0.26 0.588,-0.058 0.582,0.858 0,0.916 -0.551,0.054 -1.174,0.145 -1.823,0.222 0.023,2.901 0.79,6.08 2.02,8.353 0.06,0.003 0.124,0.005 0.184,0.008 0.117,0.007 0.234,0.018 0.352,0.026 2.256,-2.328 3.596,-5.35 3.74,-8.397 l -2.484,-0.122 c -0.213,-0.011 -0.369,-0.093 -0.464,-0.243 -0.129,-0.199 -0.088,-0.47 0.095,-0.629 0.161,-0.139 0.446,-0.141 0.606,0 0.011,0.01 0.022,0.02 0.033,0.031 l 2.953,0.146 c 0.058,0.002 0.116,0.005 0.173,0.007 0.188,-0.069 0.391,-0.172 0.507,-0.276 0.173,-0.156 0.308,-0.404 0.413,-0.758 0.197,-0.665 0.219,-1.374 0.063,-2.05 -0.053,-0.23 0.09,-0.459 0.32,-0.512 0.032,-0.007 0.064,-0.011 0.096,-0.011 0.194,0 0.37,0.134 0.415,0.332 0.189,0.819 0.162,1.677 -0.076,2.483 -0.091,0.306 -0.208,0.559 -0.348,0.773 0.117,-0.014 0.243,-0.029 0.374,-0.043 0.217,-0.025 0.458,-0.052 0.607,-0.076 0.368,-0.329 0.493,-0.838 0.535,-1.123 0.066,-0.447 0.034,-0.909 0,-1.399 l -0.014,-0.195 c -0.016,-0.236 0.163,-0.439 0.398,-0.454 0.009,-10e-4 0.019,-10e-4 0.028,-10e-4 0.223,0 0.41,0.172 0.425,0.398 l 0.014,0.192 c 0.035,0.514 0.073,1.045 -0.007,1.585 -0.047,0.315 -0.141,0.601 -0.263,0.862 0.265,-0.108 0.471,-0.243 0.607,-0.415 0.331,-0.419 0.426,-1.559 0.284,-2.224 -0.05,-0.23 0.097,-0.457 0.328,-0.506 0.03,-0.006 0.06,-0.01 0.089,-0.01 0.197,0 0.374,0.137 0.417,0.338 0.16,0.75 0.129,2.2 -0.449,2.931 -0.366,0.463 -0.948,0.762 -1.779,0.913 -0.966,0.176 -1.939,0.148 -2.89,0.104 -0.024,0.007 -0.047,0.015 -0.071,0.02 0.159,2.759 1.602,6.924 3.033,9.499 3.359,0.76 6.561,1.766 9.462,2.746 14.337,1.965 24.779,4.966 36.974,9.169 0.397,0.136 0.64,0.523 0.591,0.94 -0.049,0.415 -0.375,0.735 -0.792,0.777" /></g><g
           transform="translate(213.542,216.1355)"
           id="g1891"><path
             id="path1893"
             style="fill:#434343;fill-opacity:1;fill-rule:nonzero;stroke:none"
             d="m 0,0 c -6.328,-7.502 -9.606,-17.422 -8.994,-27.216 0.015,-0.24 0.214,-0.424 0.45,-0.424 0.01,0 0.019,0 0.029,0.001 0.249,0.015 0.438,0.23 0.422,0.479 -0.597,9.564 2.604,19.252 8.784,26.578 0.16,0.19 0.136,0.475 -0.055,0.636 C 0.446,0.215 0.161,0.191 0,0" /></g><g
           transform="translate(210.8419,215.7821)"
           id="g1895"><path
             id="path1897"
             style="fill:#434343;fill-opacity:1;fill-rule:nonzero;stroke:none"
             d="m 0,0 c 0.185,0.168 0.199,0.453 0.032,0.638 -0.167,0.184 -0.452,0.199 -0.638,0.032 -3.757,-3.397 -6.751,-7.673 -8.655,-12.368 -1.901,-4.684 -2.722,-9.719 -3.516,-14.589 -0.04,-0.246 0.127,-0.478 0.373,-0.519 0.025,-0.004 0.049,-0.006 0.073,-0.006 0.218,0 0.41,0.158 0.446,0.38 0.786,4.82 1.598,9.804 3.461,14.394 C -6.57,-7.469 -3.657,-3.306 0,0" /></g><g
           transform="translate(187.6684,254.7314)"
           id="g1899"><path
             id="path1901"
             style="fill:#434343;fill-opacity:1;fill-rule:nonzero;stroke:none"
             d="m 0,0 c -0.285,-0.095 -0.465,-0.444 -0.497,-0.793 -0.066,-0.72 0.169,-1.797 0.678,-2.347 0.118,-0.128 0.301,-0.211 0.468,-0.163 0.208,0.06 0.314,0.289 0.373,0.497 C 1.234,-2.06 1.3,-0.554 0.5,-0.081 0.311,0.031 0.142,0.048 0,0" /></g><g
           transform="translate(198.1664,255.9056)"
           id="g1903"><path
             id="path1905"
             style="fill:#434343;fill-opacity:1;fill-rule:nonzero;stroke:none"
             d="m 0,0 c -1.324,0.077 -1.127,-3.705 -0.097,-3.756 0.28,-0.014 0.543,0.155 0.711,0.378 0.307,0.406 0.38,0.91 0.353,1.404 C 0.937,-1.413 0.752,-0.044 0,0" /></g><g
           transform="translate(108.6747,170.1436)"
           id="g1907"><path
             id="path1909"
             style="fill:#434343;fill-opacity:1;fill-rule:nonzero;stroke:none"
             d="m 0,0 c -5.507,2.926 -9.832,6.999 -12.978,12.223 -3.147,5.222 -4.719,11.137 -4.719,17.744 0,6.607 1.572,12.521 4.719,17.745 3.146,5.222 7.471,9.297 12.978,12.223 5.505,2.926 11.719,4.389 18.641,4.389 6.041,0 11.483,-1.071 16.329,-3.21 4.844,-2.139 8.872,-5.223 12.081,-9.249 L 35.159,41.105 c -4.28,5.159 -9.471,7.739 -15.574,7.739 -3.587,0 -6.781,-0.787 -9.58,-2.359 C 7.204,44.911 5.033,42.693 3.492,39.831 1.95,36.967 1.18,33.679 1.18,29.967 c 0,-3.713 0.77,-7 2.312,-9.863 1.541,-2.864 3.712,-5.082 6.513,-6.654 2.799,-1.574 5.993,-2.36 9.58,-2.36 6.103,0 11.294,2.58 15.574,7.74 L 47.051,8.07 C 43.842,4.042 39.814,0.959 34.97,-1.18 30.124,-3.318 24.682,-4.389 18.641,-4.389 11.719,-4.389 5.505,-2.926 0,0" /></g><g
           transform="translate(203.2858,187.3691)"
           id="g1911"><path
             id="path1913"
             style="fill:#434343;fill-opacity:1;fill-rule:nonzero;stroke:none"
             d="M 0,0 C 0,4.467 -2.706,6.701 -8.117,6.701 H -22.841 V -6.89 H -8.117 C -2.706,-6.89 0,-4.594 0,0 m -22.841,19.349 h 11.892 c 5.286,0 7.929,2.171 7.929,6.513 0,4.341 -2.643,6.512 -7.929,6.512 H -22.841 Z M 15.81,8.4 c 2.044,-2.643 3.067,-5.915 3.067,-9.816 0,-5.852 -2.281,-10.462 -6.843,-13.827 -4.563,-3.367 -11.028,-5.05 -19.396,-5.05 h -33.884 v 66.07 h 32.091 c 7.928,0 14.078,-1.496 18.452,-4.484 4.373,-2.989 6.56,-7.22 6.56,-12.694 0,-3.209 -0.772,-6.041 -2.313,-8.495 C 12.002,17.65 9.784,15.699 6.89,14.252 10.791,12.993 13.764,11.043 15.81,8.4" /></g><g
           transform="translate(271.7051,183.5936)"
           id="g1915"><path
             id="path1917"
             style="fill:#434343;fill-opacity:1;fill-rule:nonzero;stroke:none"
             d="m 0,0 c 2.705,1.572 4.845,3.79 6.418,6.654 1.572,2.863 2.36,6.15 2.36,9.863 0,3.712 -0.788,7 -2.36,9.864 -1.573,2.862 -3.713,5.08 -6.418,6.654 -2.706,1.572 -5.727,2.359 -9.061,2.359 -3.336,0 -6.356,-0.787 -9.061,-2.359 -2.706,-1.574 -4.846,-3.792 -6.418,-6.654 -1.574,-2.864 -2.36,-6.152 -2.36,-9.864 0,-3.713 0.786,-7 2.36,-9.863 1.572,-2.864 3.712,-5.082 6.418,-6.654 2.705,-1.574 5.725,-2.36 9.061,-2.36 3.334,0 6.355,0.786 9.061,2.36 m -27.891,-13.403 c -5.569,2.957 -9.943,7.047 -13.119,12.27 -3.178,5.222 -4.767,11.105 -4.767,17.65 0,6.544 1.589,12.427 4.767,17.65 3.176,5.223 7.55,9.312 13.119,12.27 5.569,2.958 11.846,4.437 18.83,4.437 6.985,0 13.261,-1.479 18.83,-4.437 5.569,-2.958 9.941,-7.047 13.119,-12.27 3.177,-5.223 4.767,-11.106 4.767,-17.65 0,-6.545 -1.59,-12.428 -4.767,-17.65 -3.178,-5.223 -7.55,-9.313 -13.119,-12.27 -5.569,-2.958 -11.845,-4.436 -18.83,-4.436 -6.984,0 -13.261,1.478 -18.83,4.436" /></g><path
           id="path1919"
           style="fill:#434343;fill-opacity:1;fill-rule:nonzero;stroke:none"
           d="m 306.807,233.146 h 18.688 v -66.07 h -18.688 z" /><path
           id="path1921"
           style="fill:#434343;fill-opacity:1;fill-rule:nonzero;stroke:none"
           d="m 309.456,255.471 h -14.405 v -14.435 h 14.405 z" /><g
           transform="translate(324.1808,255.4714)"
           id="g1923"><path
             id="path1925"
             style="fill:#434343;fill-opacity:1;fill-rule:nonzero;stroke:none"
             d="M 0,0 -10.362,-14.435 H 12.675 V 0 Z" /></g><g
           transform="translate(286.9038,175.67)"
           id="g1927"><path
             id="path1929"
             style="fill:#ffffff;fill-opacity:1;fill-rule:nonzero;stroke:none"
             d="m 0,0 c 0,0 2.572,-0.847 3.827,-2.29 1.255,-1.443 1.882,-3.388 1.882,-3.388 0,0 0.031,3.294 0.69,4.737 0.659,1.443 1.252,1.895 1.252,1.895 0,0 -4.134,-0.685 -5.581,-0.712 C 0.623,0.216 0,0 0,0" /></g><g
           id="g1931"><g
             id="g1933" /><g
             id="g1945"><g
               id="g1943"
               opacity="0.479996"
               clip-path="url(#clipPath1937)"><g
                 id="g1941"
                 transform="translate(292.1827,174.132)"><path
                   id="path1939"
                   style="fill:#434343;fill-opacity:1;fill-rule:nonzero;stroke:none"
                   d="m 0,0 c 0.34,0.075 0.679,0.158 1.017,0.242 0.042,0.126 0.087,0.247 0.136,0.355 0.659,1.443 1.252,1.895 1.252,1.895 0,0 -4.134,-0.685 -5.581,-0.712 -1.447,-0.026 -2.07,-0.242 -2.07,-0.242 0,0 1.87,-0.618 3.199,-1.695 C -1.363,-0.152 -0.68,-0.15 0,0" /></g></g></g></g><g
           transform="translate(270.4982,177.5521)"
           id="g1947"><path
             id="path1949"
             style="fill:#ffffff;fill-opacity:1;fill-rule:nonzero;stroke:none"
             d="M 0,0 C 0.941,-0.972 2.259,-1.631 3.325,-3.451 4.392,-5.27 4.548,-7.34 4.548,-7.34 c 0,0 0.889,2.571 2.193,3.827 1.303,1.255 2.481,1.537 2.481,1.537 0,0 -3.231,0.408 -5.081,0.847 C 2.29,-0.69 0,0 0,0" /></g><g
           id="g1951"><g
             id="g1953" /><g
             id="g1965"><g
               id="g1963"
               opacity="0.479996"
               clip-path="url(#clipPath1957)"><g
                 id="g1961"
                 transform="translate(273.363,174.7952)"><path
                   id="path1959"
                   style="fill:#434343;fill-opacity:1;fill-rule:nonzero;stroke:none"
                   d="m 0,0 c 0.637,-0.056 1.287,-0.225 1.819,-0.327 0.684,-0.13 1.366,-0.287 2.048,-0.438 0.003,0.002 0.006,0.006 0.009,0.009 1.304,1.255 2.481,1.537 2.481,1.537 0,0 -3.23,0.407 -5.081,0.847 C -0.575,2.067 -2.865,2.757 -2.865,2.757 -2.055,1.92 -0.967,1.311 0,0" /></g></g></g></g><g
           transform="translate(278.4213,251.7693)"
           id="g1967"><path
             id="path1969"
             style="fill:#ffffff;fill-opacity:1;fill-rule:nonzero;stroke:none"
             d="M 0,0 C 0.205,-1.481 0.257,-2.208 1.186,-3.613 2.115,-5.019 3.307,-4.611 3.558,-3.2 3.809,-1.788 3.715,1.067 3.213,2.353 2.711,3.639 2.048,4.257 1.186,3.484 0.324,2.711 -0.044,1.537 0,1.004 0.044,0.471 0,0 0,0" /></g><g
           transform="translate(269.5764,253.548)"
           id="g1971"><path
             id="path1973"
             style="fill:#ffffff;fill-opacity:1;fill-rule:nonzero;stroke:none"
             d="m 0,0 c -1.134,-1.279 -1.298,-3.895 -0.807,-5.532 0.49,-1.637 1.663,-2.027 2.607,-1.83 0.944,0.197 1.758,2.302 1.517,3.958 C 3.077,-1.749 1.986,-0.105 1.406,0.258 0.826,0.622 0,0 0,0" /></g></g></g><g
       id="g1975"><g
         id="g1977"><g
           id="g1983"><g
             id="g1985"><path
               id="path1997"
               style="fill:url(#linearGradient1995);stroke:none"
               d="m 275.349,258.691 c -2.783,-0.179 -5.027,-1.635 -5.71,-4.375 v 0 c 0.423,0.055 0.352,0.057 0.763,-0.146 v 0 c 2.142,-1.059 2.782,-3.928 2.51,-6.109 v 0 c -0.247,-1.985 -2.422,-2.593 -3.638,-0.986 v 0 c -0.566,0.747 -0.684,1.672 -1.132,2.469 v 0 c -0.168,0.301 -0.251,0.598 -0.264,0.88 v 0 c -3.03,-8.037 -5.714,-16.862 -8.745,-24.898 v 0 c -2.964,-7.864 -6.203,-13.599 -7.144,-22.024 v 0 c -0.873,-7.812 3.17,-14.676 8.749,-19.629 v 0 c 0.345,-0.307 0.698,-0.602 1.057,-0.888 v 0 c 0.038,-0.038 0.078,-0.066 0.119,-0.09 v 0 c 2.478,-1.948 5.232,-3.449 7.859,-5.203 v 0 c 0.699,-0.213 1.4,-0.474 2.116,-0.69 v 0 c 2.565,-0.775 5.425,-0.515 8.071,-1.024 v 0 c 2.867,-0.551 6.475,-0.937 9.376,-0.437 v 0 c 1.686,0.291 3.357,0.716 5.041,0.813 v 0 c 0.059,0.091 0.116,0.184 0.178,0.27 v 0 c 3.494,0.825 6.871,2.093 10.13,3.775 v 0 c 9.658,-0.26 18.241,9.237 21.748,17.62 v 0 c 0.094,0.228 0.016,0.406 -0.133,0.509 v 0 c -0.005,0.02 -0.046,-0.132 -0.087,-0.284 v 0 c -0.041,-0.153 -0.085,-0.306 -0.095,-0.284 v 0 c -0.015,0.027 0.106,0.744 0.091,0.77 v 0 c -0.379,0.012 -1.155,-0.542 -1.204,-0.596 v 0 c -0.487,-0.544 -0.222,-0.761 -0.609,-1.373 v 0 c -1.001,-1.582 -2.305,-2.736 -4.262,-2.762 v 0 c -1.318,-0.018 -2.857,0.057 -3.987,0.743 v 0 c -1.823,0.736 -4.092,2.157 -5.642,3.169 v 0 c -2.591,1.692 -4.803,3.789 -7.318,5.591 v 0 c -2.867,2.053 -11.976,9.139 -13.596,10.647 v 0 c -8.912,8.289 -10.146,21.486 -9.072,32.873 v 0 c 0.5,0.059 1.446,0.147 1.63,0.782 v 0 c -0.408,-0.073 -1.31,-0.447 -1.751,-0.326 v 0 c -1.502,0.413 -2.122,2.509 -1.61,4.048 v 0 c 0.03,0.089 0.053,0.178 0.074,0.266 v 0 c 0.058,0.806 0.061,1.602 0.235,2.409 v 0 c 0.206,0.948 0.94,1.649 1.816,1.975 v 0 c -0.05,0.048 -0.107,0.087 -0.171,0.112 v 0 c -0.507,1.933 -2.663,2.428 -4.606,2.428 v 0 c -0.268,0 -0.532,-0.009 -0.787,-0.025 m -7.39,-7.658 c 0.011,0.034 0.023,0.067 0.036,0.1 v 0 c -0.002,0.002 -0.004,0.003 -0.005,0.003 v 0 c -0.012,0 -0.022,-0.041 -0.031,-0.103 m -0.081,-0.609 c 0.001,0.002 0.002,0.004 0.002,0.006 v 0 c 0.023,-0.032 0.038,0.159 0.054,0.351 v 0 c 0.008,0.092 0.016,0.184 0.025,0.252 v 0 c -0.061,-0.192 -0.09,-0.396 -0.081,-0.609" /></g></g></g></g><g
       id="g2007"><g
         id="g2009" /><g
         id="g2021"><g
           id="g2019"
           opacity="0.479996"
           clip-path="url(#clipPath2013)"><g
             id="g2017"
             transform="translate(272.5883,247.1988)"><path
               id="path2015"
               style="fill:#434343;fill-opacity:1;fill-rule:nonzero;stroke:none"
               d="m 0,0 c 0,0 1.115,-1.072 2.088,-2.499 0.974,-1.427 2.05,-1.461 2.621,0 0.572,1.462 0.524,2.041 0.524,2.041 0,0 -1.704,0.204 -2.668,0.762 C 1.602,0.862 0,1.462 0,1.462 Z" /></g></g></g></g><g
       transform="translate(272.5883,248.2977)"
       id="g2023"><path
         id="path2025"
         style="fill:#e22715;fill-opacity:1;fill-rule:nonzero;stroke:none"
         d="M 0,0 C 0,0 0.632,-1.161 2.504,-1.506 4.375,-1.85 4.973,-1.81 5.538,-0.197 6.297,1.97 4.936,2.008 3.407,1.718 1.879,1.427 0,0 0,0" /></g><g
       id="g2027"><g
         id="g2029" /><g
         id="g2041"><g
           id="g2039"
           opacity="0.479996"
           clip-path="url(#clipPath2033)"><g
             id="g2037"
             transform="translate(282.416,209.3259)"><path
               id="path2035"
               style="fill:#434343;fill-opacity:1;fill-rule:nonzero;stroke:none"
               d="m 0,0 c 0,0 1.114,-11.215 6.756,-18.575 5.642,-7.359 10.329,-9.112 12.388,-9.637 2.059,-0.526 3.125,-0.715 3.125,-0.715 0,0 -2.599,-1.257 -3.738,-1.738 -1.139,-0.482 -2.987,-1.081 -2.987,-1.081 0,0 -8.14,3.534 -12.258,14.048 C -0.832,-7.184 0,0 0,0" /></g></g></g></g><g
       transform="translate(298.8595,182.48)"
       id="g2043"><path
         id="path2045"
         style="fill:#434343;fill-opacity:1;fill-rule:nonzero;stroke:none"
         d="m 0,0 c -4.881,2.335 -8.65,6.879 -11.347,11.451 -2.798,4.743 -4.403,10.158 -4.787,15.64 -0.033,0.465 -0.761,0.469 -0.728,0 0.408,-5.815 2.168,-11.4 5.129,-16.418 2.83,-4.797 7.047,-9.557 12.292,-11.726 1.464,-0.606 2.92,-0.969 4.353,-1.122 -5.291,-2.608 -10.881,-4.031 -16.798,-4.348 -5.692,-0.304 -12.105,0.011 -17.323,2.562 -1.287,0.81 -2.63,1.536 -3.84,2.295 -1.098,0.69 -2.196,1.456 -3.265,2.29 -0.017,0.034 -0.034,0.068 -0.065,0.1 -4.628,4.674 -6.558,10.658 -7.073,17.093 -0.453,5.646 -0.289,11.392 0.641,16.982 10e-4,0.009 -0.002,0.017 -10e-4,0.027 1.088,3.035 2.266,6.041 3.403,9.055 2.92,7.746 5.84,15.492 8.761,23.238 0.024,-1.363 0.351,-2.694 1.388,-3.546 1.306,-1.072 2.718,-0.102 3.261,1.198 0.051,0.123 0.095,0.253 0.133,0.388 1.132,-0.958 2.462,-1.485 3.97,-1.556 1.036,-0.048 1.518,1.52 1.751,2.717 0.389,-0.797 0.985,-1.441 1.801,-1.81 -0.622,-6.327 -0.786,-12.729 0.7,-18.954 1.386,-5.806 4.394,-10.757 8.773,-14.782 1.626,-1.495 3.324,-2.925 5.061,-4.314 C 2.033,20.348 6.027,12.18 6.92,3.754 6.969,3.292 7.697,3.287 7.648,3.754 6.865,11.14 3.784,18.315 -0.842,24.156 0.463,23.169 1.78,22.2 3.103,21.245 3.111,21.235 3.114,21.224 3.124,21.214 7.907,16.491 10.7,10.113 10.917,3.394 c 0.015,-0.469 0.744,-0.47 0.728,0 -0.188,5.825 -2.26,11.405 -5.853,15.925 0.096,-0.068 0.193,-0.138 0.289,-0.206 2.676,-1.901 5.402,-3.731 8.161,-5.508 2.375,-1.53 4.944,-3.225 7.888,-2.524 0.081,0.019 0.135,0.061 0.177,0.11 0.778,0.55 1.5,1.154 2.175,1.827 0.41,0.41 0.779,0.859 1.136,1.315 0.143,0.183 1.171,1.85 1.55,1.108 0.013,-0.026 0.032,-0.04 0.047,-0.06 C 22.975,5.226 11.611,-5.555 0,0 m -6.543,-10.714 c -0.805,1.492 -2.126,2.743 -3.643,3.578 1.712,0.148 3.4,0.392 5.062,0.736 -0.828,-1.332 -1.262,-2.799 -1.419,-4.314 m -16.345,1.185 c -0.267,-0.406 -0.521,-0.875 -0.754,-1.376 -0.151,0.988 -0.532,1.97 -1.239,3.055 -0.52,0.795 -1.168,1.489 -1.891,2.116 2.131,-0.705 4.378,-1.124 6.647,-1.354 -1.115,-0.555 -2.032,-1.328 -2.763,-2.441 m -23.808,28.181 c 0.085,4.304 1.367,8.638 2.69,12.702 0.002,0.007 0.005,0.014 0.007,0.021 -0.505,-4.684 -0.513,-9.418 -0.137,-14.116 0.397,-4.96 1.78,-9.683 4.508,-13.712 -4.116,4.113 -7.182,9.32 -7.068,15.105 m 19.193,51.583 c 0.691,-1.089 0.952,-2.432 1.012,-3.697 0.026,-0.539 -0.063,-1.059 -0.21,-1.574 -0.522,-1.825 -2.398,-0.926 -2.906,0.311 -0.527,1.286 -0.315,3.05 -0.087,4.392 0.427,0.741 0.947,2.531 2.191,0.568 m 6.602,-4.026 c -0.206,-0.934 -0.589,-1.896 -1.37,-1.86 -0.937,0.044 -1.827,0.412 -2.594,0.943 1,0.903 2.377,1.258 3.964,0.917 m -4.737,-0.293 c 1.172,1.376 3.145,1.439 4.902,1.23 -0.015,-0.105 -0.032,-0.218 -0.051,-0.335 -1.609,0.382 -3.451,0.054 -4.654,-1.067 -0.066,0.057 -0.134,0.113 -0.197,0.172 m 1.295,9.406 c 1.723,0.412 5.177,0.51 5.618,-1.707 -0.202,-0.085 -0.451,-0.239 -0.676,-0.495 -0.006,-0.006 -0.013,-0.007 -0.018,-0.014 -0.012,-0.014 -0.022,-0.03 -0.033,-0.044 -0.015,-0.019 -0.031,-0.033 -0.045,-0.052 -0.01,-0.013 -0.012,-0.023 -0.02,-0.036 -0.996,-1.261 -1.419,-3.307 -1.111,-5.116 -1.787,0.206 -3.727,0.13 -5.075,-0.983 -0.076,1.549 -0.657,3.238 -1.479,4.197 -0.472,0.551 -0.958,0.867 -1.606,0.83 0.474,2.061 2.48,2.951 4.445,3.42 m 6.625,-3.563 c 0.487,-1.339 0.62,-2.855 0.623,-4.268 10e-4,-0.678 -0.12,-3.173 -1.714,-1.882 -0.798,0.647 -0.979,1.826 -1.071,2.773 -0.141,1.442 -0.012,3.019 0.945,4.168 0.082,0.087 0.227,0.203 0.473,0.241 0.001,0 0.002,0.001 0.003,0.001 0.058,-0.022 0.12,-0.028 0.183,-0.022 0.174,-0.349 0.439,-0.684 0.558,-1.011 M 27.838,15.662 c -0.004,0.047 -0.016,0.096 -0.041,0.146 -0.505,0.99 -1.584,0.522 -2.121,-0.162 -1.149,-1.462 -2.224,-2.761 -3.76,-3.845 -0.011,-0.008 -0.016,-0.018 -0.025,-0.026 -3.188,-0.729 -6.148,1.715 -8.659,3.351 -2.598,1.692 -5.152,3.449 -7.675,5.251 -3.013,2.152 -6.029,4.36 -8.938,6.689 -0.089,0.093 -0.175,0.19 -0.265,0.282 -0.065,0.066 -0.136,0.091 -0.207,0.099 -1.671,1.351 -3.306,2.742 -4.881,4.189 -9.218,8.474 -10.03,20.966 -8.898,32.697 1.079,0.124 1.222,2.413 1.265,3.158 0.058,1.021 -0.125,2.07 -0.299,3.073 -0.109,0.631 -0.296,1.237 -0.513,1.837 -0.249,0.687 -0.576,0.789 -0.538,0.952 0.047,0.201 -0.061,0.383 -0.254,0.448 -0.019,0.006 -0.037,0.006 -0.055,0.01 -0.517,2.439 -3.8,2.599 -5.907,2.32 -2.619,-0.347 -5.215,-1.735 -5.63,-4.49 -0.378,-0.344 -0.413,-1 -0.645,-1.449 -0.003,-10e-4 -0.005,-10e-4 -0.007,-0.002 -0.001,-0.002 -0.001,-0.004 -0.001,-0.005 -0.021,-0.083 -0.05,-0.161 -0.082,-0.238 -0.049,-0.039 -0.092,-0.088 -0.119,-0.158 -3.164,-8.393 -6.328,-16.786 -9.493,-25.179 -3.029,-8.035 -6.673,-16.215 -7.452,-24.858 -0.705,-7.821 4.247,-14.261 9.913,-19.087 0.167,-0.141 0.341,-0.272 0.51,-0.409 0.016,-0.015 0.029,-0.032 0.045,-0.047 0.027,-0.028 0.057,-0.042 0.087,-0.058 2.166,-1.72 4.564,-3.064 6.873,-4.562 0.01,-0.006 0.015,-0.015 0.026,-0.021 0.007,-0.003 0.015,-0.007 0.023,-0.011 0.542,-0.352 1.081,-0.711 1.609,-1.09 1.622,-1.164 3.1,-2.653 3.657,-4.615 0.269,-0.951 0.335,-1.783 0.275,-2.614 -0.217,-0.729 -0.363,-1.456 -0.412,-2.126 -0.514,0.019 -1.02,0.006 -1.501,-0.061 -1.092,0.088 -2.175,0.084 -3.178,-0.104 -0.675,0.002 -1.35,0.004 -2.026,0.006 -0.77,0.002 -1.69,0.13 -2.443,-0.069 -1.145,-0.302 -1.853,-0.95 -2.191,-2.093 -0.168,-0.568 0.716,-0.809 0.883,-0.244 0.375,1.267 1.992,1.592 3.699,1.626 -0.813,-0.502 -1.504,-1.241 -1.998,-2.317 -0.246,-0.532 0.544,-0.998 0.791,-0.462 0.794,1.725 2.124,2.45 3.658,2.697 0.204,-0.014 0.395,-0.025 0.579,-0.036 -0.765,-0.745 -1.053,-1.787 -1.258,-2.944 -0.102,-0.577 0.781,-0.824 0.884,-0.243 0.332,1.878 1.086,3.141 3.066,3.225 0.015,-0.002 0.03,-0.003 0.044,-0.004 0.024,-0.003 0.041,0.005 0.063,0.006 0.067,10e-4 0.132,0.005 0.203,0.004 1.384,-0.026 2.763,-0.124 4.14,-0.26 0.588,-0.058 0.582,0.859 0,0.916 -0.783,0.078 -1.711,0.227 -2.655,0.309 0.168,0.691 0.297,1.334 0.369,1.948 0.313,0.989 0.754,1.963 1.175,2.764 0.799,1.519 2.15,2.403 3.738,2.933 0.055,0.018 0.099,0.045 0.135,0.078 2.109,-0.138 4.219,-0.134 6.252,-0.058 0.235,0.009 0.47,0.024 0.704,0.036 0.029,-0.023 0.058,-0.046 0.097,-0.062 2.28,-0.888 4.344,-2.863 4.92,-5.235 0.018,-0.562 0.066,-1.125 0.141,-1.686 -0.012,-0.161 -0.03,-0.323 -0.056,-0.486 -1.379,0.026 -2.865,-0.248 -4.029,-0.364 -0.582,-0.057 -0.588,-0.974 0,-0.916 1.377,0.137 2.756,0.234 4.14,0.26 0.071,10e-4 0.136,-0.003 0.203,-0.004 0.022,-10e-4 0.039,-0.009 0.063,-0.006 0.014,10e-4 0.029,0.002 0.044,0.004 1.98,-0.083 2.734,-1.347 3.066,-3.225 0.103,-0.581 0.986,-0.334 0.884,0.244 -0.205,1.156 -0.493,2.198 -1.258,2.943 0.184,0.011 0.375,0.023 0.579,0.036 1.534,-0.247 2.864,-0.971 3.658,-2.697 0.247,-0.536 1.037,-0.07 0.791,0.463 -0.494,1.075 -1.185,1.814 -1.998,2.317 1.707,-0.035 3.324,-0.36 3.699,-1.627 0.167,-0.565 1.051,-0.324 0.883,0.244 -0.338,1.144 -1.046,1.792 -2.191,2.093 -0.753,0.199 -1.673,0.071 -2.443,0.069 -0.675,-0.002 -1.351,-0.004 -2.026,-0.006 -1.003,0.188 -2.086,0.192 -3.178,0.104 -0.005,10e-4 -0.009,0.002 -0.014,0.002 -0.033,0.192 -0.063,0.383 -0.09,0.575 0.034,0.602 -0.016,1.19 -0.147,1.758 -0.055,2.199 0.41,4.361 1.756,6.215 0.012,0.016 0.013,0.031 0.022,0.047 3.615,0.842 7.108,2.15 10.464,3.92 9.617,-0.105 18.065,8.978 21.603,17.541 0.072,0.174 -0.001,0.305 -0.122,0.376" /></g><g
       transform="translate(265.656,223.5063)"
       id="g2047"><path
         id="path2049"
         style="fill:#434343;fill-opacity:1;fill-rule:nonzero;stroke:none"
         d="m 0,0 c 0.1,0.458 -0.602,0.652 -0.702,0.194 -2.58,-11.834 -2.076,-24.876 4.084,-35.595 0.234,-0.407 0.863,-0.04 0.629,0.368 C -2.05,-24.486 -2.538,-11.642 0,0" /></g><g
       transform="translate(270.515,248.3044)"
       id="g2051"><path
         id="path2053"
         style="fill:#434343;fill-opacity:1;fill-rule:nonzero;stroke:none"
         d="M 0,0 C 0.536,-0.208 0.636,0.54 0.604,0.858 0.516,1.71 0.414,2.343 0.04,3.099 -0.057,3.296 -0.184,3.499 -0.389,3.577 -1.181,3.877 -0.921,1.785 -0.853,1.415 -0.753,0.878 -0.547,0.212 0,0" /></g><g
       transform="translate(280.1725,253.4161)"
       id="g2055"><path
         id="path2057"
         style="fill:#434343;fill-opacity:1;fill-rule:nonzero;stroke:none"
         d="m 0,0 c -0.497,-0.168 -0.571,-1.327 -0.542,-1.749 0.044,-0.636 0.274,-1.265 0.686,-1.755 0.1,-0.119 0.221,-0.235 0.374,-0.255 C 1.372,-3.87 0.923,-0.545 0.474,-0.104 0.348,0.019 0.193,0.065 0,0" /></g><g
       transform="translate(140.3099,143.3691)"
       id="g2059"><path
         id="path2061"
         style="fill:#434343;fill-opacity:1;fill-rule:nonzero;stroke:none"
         d="m 0,0 v -10.927 h -1.545 v 4.324 c -1.156,-0.448 -2.223,-0.672 -3.201,-0.672 -1.332,0 -2.365,0.323 -3.098,0.968 -0.734,0.645 -1.101,1.567 -1.101,2.763 V 0 h 1.53 v -3.372 c 0,-0.812 0.247,-1.436 0.742,-1.873 0.494,-0.437 1.194,-0.656 2.099,-0.656 1.009,0 2.019,0.229 3.029,0.687 V 0 Z" /></g><g
       transform="translate(147.1628,133.8858)"
       id="g2063"><path
         id="path2065"
         style="fill:#434343;fill-opacity:1;fill-rule:nonzero;stroke:none"
         d="M 0,0 C 0.416,0.255 0.718,0.616 0.905,1.085 V 2.24 h -2.31 c -1.27,0 -1.905,-0.427 -1.905,-1.28 0,-0.417 0.162,-0.744 0.484,-0.984 0.323,-0.239 0.771,-0.359 1.343,-0.359 0.572,0 1.066,0.128 1.483,0.383 M 1.491,6.064 C 2.1,5.503 2.404,4.665 2.404,3.551 V -1.444 H 0.983 v 1.093 C 0.734,-0.737 0.377,-1.03 -0.086,-1.233 c -0.463,-0.203 -1.012,-0.305 -1.647,-0.305 -0.926,0 -1.668,0.224 -2.224,0.671 -0.557,0.448 -0.836,1.036 -0.836,1.765 0,0.728 0.266,1.313 0.797,1.756 0.53,0.442 1.373,0.663 2.529,0.663 h 2.372 v 0.297 c 0,0.645 -0.187,1.139 -0.562,1.483 -0.374,0.343 -0.926,0.515 -1.654,0.515 -0.49,0 -0.968,-0.081 -1.437,-0.242 C -3.216,5.209 -3.612,4.993 -3.934,4.722 l -0.624,1.124 c 0.426,0.343 0.936,0.606 1.53,0.788 0.593,0.182 1.222,0.274 1.888,0.274 1.145,0 2.022,-0.282 2.631,-0.844" /></g><g
       transform="translate(158.0428,139.4041)"
       id="g2067"><path
         id="path2069"
         style="fill:#434343;fill-opacity:1;fill-rule:nonzero;stroke:none"
         d="M 0,0 H -3.028 V -6.962 H -4.527 V 0 H -7.555 V 1.311 H 0 Z" /></g><path
       id="path2071"
       style="fill:#434343;fill-opacity:1;fill-rule:nonzero;stroke:none"
       d="m 158.324,137.375 h 4.199 v -1.296 h -4.199 z" /><g
       transform="translate(169.946,133.9247)"
       id="g2073"><path
         id="path2075"
         style="fill:#434343;fill-opacity:1;fill-rule:nonzero;stroke:none"
         d="m 0,0 c 0.411,0.239 0.731,0.57 0.96,0.991 0.229,0.422 0.344,0.903 0.344,1.444 0,0.822 -0.25,1.483 -0.75,1.983 -0.499,0.499 -1.155,0.749 -1.967,0.749 -0.811,0 -1.47,-0.25 -1.974,-0.749 -0.505,-0.5 -0.758,-1.161 -0.758,-1.983 0,-0.541 0.118,-1.022 0.352,-1.444 C -3.559,0.57 -3.234,0.239 -2.818,0 c 0.416,-0.239 0.885,-0.359 1.405,-0.359 0.531,0 1.002,0.12 1.413,0.359 M 0.913,5.995 C 1.516,5.651 1.988,5.175 2.326,4.566 2.664,3.957 2.833,3.263 2.833,2.482 2.833,1.681 2.654,0.97 2.295,0.351 1.936,-0.268 1.431,-0.749 0.781,-1.093 0.13,-1.436 -0.611,-1.608 -1.444,-1.608 c -1.405,0 -2.49,0.481 -3.255,1.444 -0.765,0.963 -1.147,2.318 -1.147,4.067 0,1.696 0.349,3.025 1.046,3.988 0.697,0.963 1.764,1.6 3.2,1.912 L 2.178,10.646 2.396,9.273 -1.085,8.523 C -2.167,8.284 -2.974,7.878 -3.505,7.306 -4.035,6.733 -4.337,5.911 -4.41,4.839 c 0.354,0.531 0.812,0.942 1.374,1.233 0.562,0.292 1.191,0.438 1.889,0.438 0.77,0 1.456,-0.172 2.06,-0.515" /></g><g
       transform="translate(179.4992,134.026)"
       id="g2077"><path
         id="path2079"
         style="fill:#434343;fill-opacity:1;fill-rule:nonzero;stroke:none"
         d="M 0,0 C 0.421,0.245 0.752,0.588 0.991,1.03 1.231,1.472 1.35,1.98 1.35,2.553 1.35,3.125 1.231,3.632 0.991,4.075 0.752,4.517 0.421,4.857 0,5.097 -0.421,5.336 -0.898,5.456 -1.428,5.456 -1.959,5.456 -2.435,5.336 -2.857,5.097 -3.278,4.857 -3.612,4.517 -3.856,4.075 -4.1,3.632 -4.223,3.125 -4.223,2.553 -4.223,1.98 -4.1,1.472 -3.856,1.03 -3.612,0.588 -3.278,0.245 -2.857,0 c 0.422,-0.245 0.898,-0.367 1.429,-0.367 0.53,0 1.007,0.122 1.428,0.367 m -3.645,-1.132 c -0.656,0.364 -1.168,0.867 -1.538,1.507 -0.369,0.64 -0.554,1.366 -0.554,2.178 0,0.811 0.185,1.537 0.554,2.177 0.37,0.64 0.882,1.14 1.538,1.499 0.656,0.359 1.394,0.538 2.217,0.538 0.822,0 1.558,-0.179 2.209,-0.538 C 1.431,5.87 1.941,5.37 2.31,4.73 2.679,4.09 2.864,3.364 2.864,2.553 2.864,1.741 2.679,1.015 2.31,0.375 1.941,-0.265 1.431,-0.768 0.781,-1.132 0.13,-1.496 -0.606,-1.678 -1.428,-1.678 c -0.823,0 -1.561,0.182 -2.217,0.546" /></g><g
       transform="translate(189.9971,139.4041)"
       id="g2081"><path
         id="path2083"
         style="fill:#434343;fill-opacity:1;fill-rule:nonzero;stroke:none"
         d="M 0,0 H -3.028 V -6.962 H -4.527 V 0 H -7.555 V 1.311 H 0 Z" /></g><g
       transform="translate(202.2827,139.4041)"
       id="g2085"><path
         id="path2087"
         style="fill:#434343;fill-opacity:1;fill-rule:nonzero;stroke:none"
         d="M 0,0 H -3.028 V -6.962 H -4.527 V 0 H -7.555 V 1.311 H 0 Z" /></g><g
       transform="translate(208.6986,133.8933)"
       id="g2089"><path
         id="path2091"
         style="fill:#434343;fill-opacity:1;fill-rule:nonzero;stroke:none"
         d="m 0,0 c 0.312,0.198 0.468,0.505 0.468,0.921 0,0.427 -0.143,0.744 -0.429,0.952 -0.286,0.208 -0.736,0.313 -1.35,0.313 h -2.498 v -2.482 h 2.404 c 0.624,0 1.093,0.098 1.405,0.296 m -3.809,3.263 h 2.248 c 0.572,0 1.007,0.104 1.303,0.312 0.297,0.208 0.445,0.51 0.445,0.905 0,0.791 -0.582,1.187 -1.748,1.187 H -3.809 Z M 1.967,0.828 c 0,-0.729 -0.273,-1.291 -0.82,-1.686 -0.546,-0.396 -1.36,-0.594 -2.443,-0.594 h -3.98 v 8.274 h 3.84 c 0.978,0 1.743,-0.185 2.295,-0.554 C 1.41,5.898 1.686,5.375 1.686,4.699 1.686,4.262 1.569,3.884 1.335,3.567 1.101,3.25 0.775,3.008 0.359,2.841 1.431,2.571 1.967,1.899 1.967,0.828" /></g><g
       transform="translate(217.589,134.026)"
       id="g2093"><path
         id="path2095"
         style="fill:#434343;fill-opacity:1;fill-rule:nonzero;stroke:none"
         d="M 0,0 C 0.421,0.245 0.752,0.588 0.991,1.03 1.231,1.472 1.35,1.98 1.35,2.553 1.35,3.125 1.231,3.632 0.991,4.075 0.752,4.517 0.421,4.857 0,5.097 -0.421,5.336 -0.898,5.456 -1.428,5.456 -1.959,5.456 -2.435,5.336 -2.857,5.097 -3.278,4.857 -3.612,4.517 -3.856,4.075 -4.1,3.632 -4.223,3.125 -4.223,2.553 -4.223,1.98 -4.1,1.472 -3.856,1.03 -3.612,0.588 -3.278,0.245 -2.857,0 c 0.422,-0.245 0.898,-0.367 1.429,-0.367 0.53,0 1.007,0.122 1.428,0.367 m -3.645,-1.132 c -0.656,0.364 -1.168,0.867 -1.538,1.507 -0.369,0.64 -0.554,1.366 -0.554,2.178 0,0.811 0.185,1.537 0.554,2.177 0.37,0.64 0.882,1.14 1.538,1.499 0.656,0.359 1.394,0.538 2.217,0.538 0.822,0 1.558,-0.179 2.209,-0.538 C 1.431,5.87 1.941,5.37 2.31,4.73 2.679,4.09 2.864,3.364 2.864,2.553 2.864,1.741 2.679,1.015 2.31,0.375 1.941,-0.265 1.431,-0.768 0.781,-1.132 0.13,-1.496 -0.606,-1.678 -1.428,-1.678 c -0.823,0 -1.561,0.182 -2.217,0.546" /></g><g
       transform="translate(223.6453,132.8944)"
       id="g2097"><path
         id="path2099"
         style="fill:#434343;fill-opacity:1;fill-rule:nonzero;stroke:none"
         d="m 0,0 c -0.682,0.364 -1.215,0.869 -1.6,1.514 -0.385,0.645 -0.578,1.368 -0.578,2.17 0,0.812 0.193,1.54 0.578,2.186 C -1.215,6.515 -0.682,7.019 0,7.384 0.682,7.748 1.444,7.93 2.287,7.93 3.016,7.93 3.674,7.815 4.262,7.587 4.85,7.358 5.347,7.025 5.753,6.588 L 4.878,5.713 C 4.212,6.369 3.369,6.697 2.35,6.697 1.538,6.697 0.845,6.465 0.273,6.002 -0.299,5.539 -0.643,4.933 -0.757,4.184 H 3.396 V 3.075 H -0.726 C -0.591,2.357 -0.242,1.777 0.32,1.335 0.882,0.892 1.558,0.671 2.35,0.671 c 1.009,0 1.852,0.333 2.528,0.999 L 5.753,0.812 C 5.347,0.364 4.847,0.026 4.254,-0.203 3.661,-0.432 3.005,-0.547 2.287,-0.547 1.444,-0.547 0.682,-0.364 0,0" /></g><g
       transform="translate(232.1297,142.4247)"
       id="g2101"><path
         id="path2103"
         style="fill:#434343;fill-opacity:1;fill-rule:nonzero;stroke:none"
         d="m 0,0 c -0.146,0.15 -0.218,0.335 -0.218,0.554 0,0.229 0.072,0.419 0.218,0.57 C 0.146,1.275 0.328,1.35 0.547,1.35 0.775,1.35 0.963,1.275 1.108,1.124 1.254,0.973 1.327,0.783 1.327,0.554 1.327,0.325 1.254,0.138 1.108,-0.008 0.963,-0.154 0.775,-0.227 0.547,-0.227 0.328,-0.227 0.146,-0.151 0,0 M -1.311,-1.71 H 0.188 V -9.984 H -1.311 Z M -2.232,0 c -0.146,0.15 -0.219,0.335 -0.219,0.554 0,0.229 0.073,0.419 0.219,0.57 0.145,0.151 0.333,0.226 0.562,0.226 0.218,0 0.4,-0.075 0.546,-0.226 0.146,-0.151 0.219,-0.341 0.219,-0.57 0,-0.229 -0.073,-0.416 -0.219,-0.562 -0.146,-0.146 -0.328,-0.219 -0.546,-0.219 -0.229,0 -0.417,0.076 -0.562,0.227" /></g><g
       transform="translate(244.7118,139.4041)"
       id="g2105"><path
         id="path2107"
         style="fill:#434343;fill-opacity:1;fill-rule:nonzero;stroke:none"
         d="M 0,0 H -4.59 V -6.962 H -6.088 V 1.311 H 0 Z" /></g><g
       transform="translate(251.5412,134.026)"
       id="g2109"><path
         id="path2111"
         style="fill:#434343;fill-opacity:1;fill-rule:nonzero;stroke:none"
         d="M 0,0 C 0.421,0.245 0.754,0.588 0.999,1.03 1.244,1.472 1.366,1.98 1.366,2.553 1.366,3.125 1.244,3.632 0.999,4.075 0.754,4.517 0.421,4.857 0,5.097 -0.422,5.336 -0.898,5.456 -1.428,5.456 -1.949,5.456 -2.42,5.333 -2.841,5.089 -3.263,4.845 -3.596,4.504 -3.84,4.067 -4.085,3.63 -4.207,3.125 -4.207,2.553 c 0,-0.573 0.12,-1.081 0.359,-1.523 0.239,-0.442 0.572,-0.785 0.999,-1.03 0.427,-0.245 0.9,-0.367 1.421,-0.367 0.53,0 1.006,0.122 1.428,0.367 M 0.851,6.236 C 1.485,5.883 1.982,5.388 2.341,4.753 2.701,4.119 2.88,3.385 2.88,2.553 2.88,1.72 2.701,0.984 2.341,0.344 1.982,-0.296 1.485,-0.794 0.851,-1.147 0.216,-1.501 -0.502,-1.678 -1.304,-1.678 c -0.593,0 -1.137,0.114 -1.631,0.343 -0.494,0.229 -0.913,0.562 -1.257,1 V -4.613 H -5.69 V 6.689 h 1.436 V 5.378 c 0.333,0.458 0.754,0.804 1.264,1.038 0.51,0.234 1.072,0.351 1.686,0.351 0.802,0 1.52,-0.177 2.155,-0.531" /></g><g
       transform="translate(261.1729,134.026)"
       id="g2113"><path
         id="path2115"
         style="fill:#434343;fill-opacity:1;fill-rule:nonzero;stroke:none"
         d="M 0,0 C 0.421,0.245 0.752,0.588 0.991,1.03 1.231,1.472 1.35,1.98 1.35,2.553 1.35,3.125 1.231,3.632 0.991,4.075 0.752,4.517 0.421,4.857 0,5.097 -0.421,5.336 -0.898,5.456 -1.428,5.456 -1.959,5.456 -2.435,5.336 -2.857,5.097 -3.278,4.857 -3.612,4.517 -3.856,4.075 -4.1,3.632 -4.223,3.125 -4.223,2.553 -4.223,1.98 -4.1,1.472 -3.856,1.03 -3.612,0.588 -3.278,0.245 -2.857,0 c 0.422,-0.245 0.898,-0.367 1.429,-0.367 0.53,0 1.007,0.122 1.428,0.367 m -3.645,-1.132 c -0.656,0.364 -1.168,0.867 -1.538,1.507 -0.369,0.64 -0.554,1.366 -0.554,2.178 0,0.811 0.185,1.537 0.554,2.177 0.37,0.64 0.882,1.14 1.538,1.499 0.656,0.359 1.394,0.538 2.217,0.538 0.822,0 1.558,-0.179 2.209,-0.538 C 1.431,5.87 1.941,5.37 2.31,4.73 2.68,4.09 2.864,3.364 2.864,2.553 2.864,1.741 2.68,1.015 2.31,0.375 1.941,-0.265 1.431,-0.768 0.781,-1.132 0.13,-1.496 -0.606,-1.678 -1.428,-1.678 c -0.823,0 -1.561,0.182 -2.217,0.546" /></g><g
       transform="translate(275.355,140.7152)"
       id="g2117"><path
         id="path2119"
         style="fill:#434343;fill-opacity:1;fill-rule:nonzero;stroke:none"
         d="m 0,0 v -8.274 h -1.358 v 6.042 l -3.091,-5.105 h -0.656 l -3.059,5.12 V -8.274 H -9.538 V 0 h 1.545 L -4.746,-5.589 -1.405,0 Z" /></g><g
       transform="translate(281.9735,133.8858)"
       id="g2121"><path
         id="path2123"
         style="fill:#434343;fill-opacity:1;fill-rule:nonzero;stroke:none"
         d="M 0,0 C 0.416,0.255 0.718,0.616 0.905,1.085 V 2.24 h -2.31 c -1.27,0 -1.905,-0.427 -1.905,-1.28 0,-0.417 0.162,-0.744 0.484,-0.984 0.323,-0.239 0.77,-0.359 1.343,-0.359 0.572,0 1.066,0.128 1.483,0.383 M 1.491,6.064 C 2.1,5.503 2.404,4.665 2.404,3.551 V -1.444 H 0.983 v 1.093 c -0.25,-0.386 -0.606,-0.679 -1.069,-0.882 -0.463,-0.203 -1.012,-0.305 -1.647,-0.305 -0.926,0 -1.668,0.224 -2.224,0.671 -0.557,0.448 -0.836,1.036 -0.836,1.765 0,0.728 0.266,1.313 0.797,1.756 0.53,0.442 1.374,0.663 2.529,0.663 h 2.372 v 0.297 c 0,0.645 -0.187,1.139 -0.562,1.483 -0.374,0.343 -0.926,0.515 -1.654,0.515 -0.49,0 -0.968,-0.081 -1.437,-0.242 C -3.216,5.209 -3.612,4.993 -3.934,4.722 l -0.624,1.124 c 0.426,0.343 0.936,0.606 1.529,0.788 0.594,0.182 1.223,0.274 1.889,0.274 1.145,0 2.022,-0.282 2.631,-0.844" /></g><g
       transform="translate(288.413,135.2283)"
       id="g2125"><path
         id="path2127"
         style="fill:#434343;fill-opacity:1;fill-rule:nonzero;stroke:none"
         d="M 0,0 C -0.13,-0.682 -0.367,-1.174 -0.71,-1.475 H 3.926 V 4.176 H 0.335 L 0.258,2.583 C 0.216,1.543 0.13,0.681 0,0 M 6.689,-1.475 V -4.707 H 5.284 v 1.92 h -6.915 v -1.92 h -1.421 v 3.232 h 0.437 c 0.531,0.031 0.895,0.405 1.093,1.124 0.197,0.718 0.333,1.732 0.406,3.044 l 0.125,2.794 h 6.415 v -6.962 z" /></g><g
       transform="translate(296.6627,140.7152)"
       id="g2129"><path
         id="path2131"
         style="fill:#434343;fill-opacity:1;fill-rule:nonzero;stroke:none"
         d="M 0,0 H 1.499 V -6.026 L 6.572,0 H 7.93 V -8.274 H 6.432 v 6.026 L 1.374,-8.274 H 0 Z" /></g></g></svg>
