<svg
   version="1.1"
   viewBox="0 0 64.114716 64.114716"
   height="64.114716mm"
   width="64.114716mm"
   xmlns:svg="http://www.w3.org/2000/svg">
  <g>
    <path class="stroke"
       style="fill:none;stroke:#000000;stroke-width:2.64583"
       d="M 1.322915,16.876678 V 1.322915 h 15.553764" />
    <path class="stroke"
       d="M 47.238033,1.322915 H 62.791797 V 16.876678"
       style="fill:none;stroke:#000000;stroke-width:2.64583" />
    <path class="stroke"
       style="fill:none;stroke:#000000;stroke-width:2.64583"
       d="m 62.791797,47.238028 v 15.55377 H 47.238033" />
    <path class="stroke"
       d="M 16.876685,62.791798 H 1.322915 v -15.55377"
       style="fill:none;stroke:#000000;stroke-width:2.64583" />
    <path class="fill"
       style="fill:#000000"
       d="m 32.057475,14.539168 c -12.12397,0 -23.237971,6.75578 -28.819947,17.51831 5.581976,10.76253 16.695977,17.51779 28.819947,17.51779 12.12403,10e-6 23.237479,-6.75532 28.819429,-17.51779 -5.58196,-10.76246 -16.695399,-17.51832 -28.819429,-17.51831 z m 0.001,5.74745 c 6.28509,0 11.345976,5.00087 11.656136,11.2112 a 1.4390351,1.4390351 0 0 1 0.113172,0.56069 1.4390351,1.4390351 0 0 1 -0.113172,0.55449 c -0.3073,6.21297 -5.369136,11.21481 -11.656136,11.21482 -6.48364,0 -11.771891,-5.28567 -11.771891,-11.76931 0,-6.48363 5.288251,-11.77189 11.771891,-11.77189 z m 0,2.87889 c -4.92821,0 -8.892997,3.9648 -8.892997,8.893 0,4.92821 3.964787,8.89041 8.892997,8.89041 4.9282,0 8.892481,-3.9622 8.892481,-8.89041 1e-5,-4.9282 -3.964281,-8.893 -8.892481,-8.893 z" />
  </g>
</svg>
